<?xml version="1.0" encoding="utf-8"?>
<!-- Generator: Adobe Illustrator 25.0.0, SVG Export Plug-In . SVG Version: 6.00 Build 0)  -->
<svg version="1.1" id="圖層_1" xmlns="http://www.w3.org/2000/svg" xmlns:xlink="http://www.w3.org/1999/xlink" x="0px" y="0px"
	 viewBox="0 0 243.28 243.28" style="enable-background:new 0 0 243.28 243.28;" xml:space="preserve">
<style type="text/css">
	.st0{clip-path:url(#SVGID_2_);}
	.st1{opacity:0.5;clip-path:url(#SVGID_4_);}
	.st2{opacity:0.3;}
	.st3{fill:none;}
	.st4{fill:#FFC6B9;}
	.st5{fill:#99FFCC;}
	.st6{fill:#FFC5B8;}
	.st7{clip-path:url(#SVGID_6_);}
	.st8{opacity:0.3;fill:#00B1D0;}
	.st9{clip-path:url(#SVGID_8_);}
	.st10{fill:#FFFFFF;}
	.st11{fill:none;stroke:#00B1D0;stroke-width:5.3642;stroke-miterlimit:10;}
	.st12{opacity:0.5;clip-path:url(#SVGID_10_);}
	.st13{fill:#00B0CF;}
	.st14{fill:#00B1D0;}
	.st15{fill:#B1F3FF;}
	.st16{fill:#89D8E6;}
	.st17{fill:#68C1D0;}
	.st18{fill:#3EBBD0;}
	.st19{fill:#0097B3;}
	.st20{fill:#008299;}
	.st21{fill:#006C80;}
	.st22{fill:#005766;}
	.st23{fill:#FFE0D9;}
	.st24{fill:#FFD5CC;}
	.st25{fill:#FFAC99;}
	.st26{fill:#FF9780;}
	.st27{fill:#FF8266;}
	.st28{fill:#D95C41;}
	.st29{fill:#BF4226;}
	.st30{fill:#99290F;}
	.st31{fill:#CCFFE6;}
	.st32{fill:#B3FFD9;}
	.st33{fill:#66FFB3;}
	.st34{fill:#47B36B;}
	.st35{fill:#24B354;}
	.st36{fill:#1F9948;}
	.st37{fill:#156630;}
	.st38{fill:#104D24;}
	.st39{fill:none;stroke:#FFFFFF;stroke-width:3;stroke-miterlimit:10;}
	.st40{fill:url(#SVGID_15_);}
	.st41{fill:none;stroke:#00B1D0;stroke-width:4;stroke-miterlimit:10;}
	.st42{fill:none;stroke:#00B1D0;stroke-miterlimit:10;}
	.st43{fill:none;stroke:#FFC6B9;stroke-width:0.5966;stroke-miterlimit:10;}
	.st44{opacity:0.5;}
	.st45{clip-path:url(#SVGID_17_);}
	.st46{clip-path:url(#SVGID_19_);}
	.st47{clip-path:url(#SVGID_21_);}
	.st48{fill:#FFC8A5;}
	.st49{fill:#FFF5F1;}
	.st50{fill:#1E1E1C;}
	.st51{fill:#162026;}
	.st52{fill:#F9EBE5;}
	.st53{fill:#363332;}
	.st54{fill:#FFBD98;}
	.st55{clip-path:url(#SVGID_29_);fill:#121C21;}
	.st56{fill:#121C21;}
	.st57{fill:#001B2F;}
	.st58{fill:#054B8D;}
	.st59{fill:#656DB4;}
	.st60{clip-path:url(#SVGID_31_);fill:#121C21;}
	.st61{fill:#8A8DCF;}
	.st62{fill:#59619C;}
	.st63{fill:#3E4180;}
	.st64{fill:#985126;}
	.st65{fill:#1E2021;}
	.st66{fill:#FFD580;}
	.st67{fill:#8A461D;}
	.st68{clip-path:url(#SVGID_33_);fill:#121C21;}
	.st69{fill:#985024;}
	.st70{fill:#263F47;}
	.st71{fill:#9D9A9D;}
	.st72{fill:none;stroke:#FCB96C;stroke-width:0.4339;stroke-linecap:round;stroke-linejoin:round;stroke-miterlimit:10;}
	.st73{fill:#804B2A;}
	.st74{fill:#FFAB76;}
	.st75{fill:#723D23;}
	.st76{fill:#824B2D;}
	.st77{fill:#FF8282;}
	.st78{fill:#F76E6D;}
	.st79{fill:none;stroke:#FB8148;stroke-width:0.3303;stroke-linecap:round;stroke-miterlimit:10;}
	.st80{fill:#FFC9B2;}
	.st81{fill:#F59458;}
	.st82{fill:#FFE7CB;}
	.st83{fill:#242221;}
	.st84{fill:#FCB894;}
	.st85{fill:#353432;}
	.st86{fill:#FFB369;}
	.st87{fill:#E89983;}
	.st88{fill:#B47253;}
	.st89{fill:#FF9F6F;}
	.st90{fill:#00283F;}
	.st91{fill:#FB8148;}
	.st92{fill:none;stroke:#FB8148;stroke-width:0.286;stroke-linecap:round;stroke-miterlimit:10;}
	.st93{fill:none;stroke:#001B2F;stroke-width:0.286;stroke-linecap:round;stroke-linejoin:round;stroke-miterlimit:10;}
	.st94{clip-path:url(#SVGID_39_);fill:#121C21;}
	.st95{fill:#FF7983;}
	.st96{fill:#FFA770;}
	.st97{fill:#474447;}
	.st98{fill:#575456;}
	.st99{clip-path:url(#SVGID_41_);fill:#121C21;}
	.st100{fill:#FF8A54;}
	.st101{fill:none;stroke:#474447;stroke-width:0.3794;stroke-linecap:round;stroke-linejoin:round;stroke-miterlimit:10;}
	.st102{fill:#F56E6C;}
	.st103{clip-path:url(#SVGID_43_);}
	.st104{fill:none;stroke:#FF8986;stroke-width:0.2772;stroke-miterlimit:10;}
	.st105{fill:#007079;}
	.st106{fill:#A05B30;}
	.st107{fill:#AF6437;}
	.st108{fill:none;stroke:#F56E6C;stroke-width:0.7393;stroke-linecap:round;stroke-linejoin:round;stroke-miterlimit:10;}
	.st109{fill:#FF5A6A;}
	.st110{fill:#FF6C77;}
	.st111{fill:#000209;}
	.st112{fill:none;stroke:#FF4A62;stroke-width:0.7308;stroke-linecap:round;stroke-linejoin:round;stroke-miterlimit:10;}
	.st113{fill:#000D26;}
	.st114{fill:#FF4A62;}
	.st115{fill:none;stroke:#FF5A6A;stroke-width:0.2741;stroke-linecap:round;stroke-linejoin:round;stroke-miterlimit:10;}
	.st116{fill:#986E61;}
	.st117{fill:#A67E6F;}
	.st118{fill:#DEC4BF;}
	.st119{fill:none;stroke:#C7A6A0;stroke-width:0.2741;stroke-linecap:round;stroke-linejoin:round;stroke-miterlimit:10;}
	.st120{fill:none;stroke:#FFFFFF;stroke-width:1.8021;stroke-linecap:round;stroke-linejoin:round;}
	
		.st121{fill:none;stroke:#FFFFFF;stroke-width:1.8021;stroke-linecap:round;stroke-linejoin:round;stroke-dasharray:0,19.9729,0,19.9729;}
	
		.st122{fill:none;stroke:#FFFFFF;stroke-width:1.8021;stroke-linecap:round;stroke-linejoin:round;stroke-dasharray:0,19.9729,0,19.9729,0,19.9729;}
	.st123{fill:#00B1D0;stroke:#FFFFFF;stroke-width:2.0891;stroke-miterlimit:10;}
	.st124{fill:none;stroke:#FFFFFF;stroke-width:3.6041;stroke-linecap:round;stroke-linejoin:round;}
	
		.st125{fill:none;stroke:#FFFFFF;stroke-width:3.6041;stroke-linecap:round;stroke-linejoin:round;stroke-dasharray:0,19.9729,0,19.9729;}
	
		.st126{fill:none;stroke:#FFFFFF;stroke-width:3.6041;stroke-linecap:round;stroke-linejoin:round;stroke-dasharray:0,19.9729,0,19.9729,0,19.9729;}
	.st127{fill:none;stroke:#00B1D0;stroke-width:3.0676;stroke-miterlimit:10;}
	.st128{fill:none;stroke:#FFFFFF;stroke-width:0.4186;stroke-linecap:round;stroke-linejoin:round;}
	
		.st129{fill:none;stroke:#FFFFFF;stroke-width:0.4186;stroke-linecap:round;stroke-linejoin:round;stroke-dasharray:0,4.6396,0,4.6396;}
	
		.st130{fill:none;stroke:#FFFFFF;stroke-width:0.4186;stroke-linecap:round;stroke-linejoin:round;stroke-dasharray:0,4.6396,0,4.6396,0,4.6396;}
	.st131{fill:#00B1D0;stroke:#FFFFFF;stroke-width:0.4853;stroke-miterlimit:10;}
	.st132{fill:none;stroke:#FFFFFF;stroke-width:0.8372;stroke-linecap:round;stroke-linejoin:round;}
	
		.st133{fill:none;stroke:#FFFFFF;stroke-width:0.8372;stroke-linecap:round;stroke-linejoin:round;stroke-dasharray:0,4.6396,0,4.6396;}
	
		.st134{fill:none;stroke:#FFFFFF;stroke-width:0.8372;stroke-linecap:round;stroke-linejoin:round;stroke-dasharray:0,4.6396,0,4.6396,0,4.6396;}
	.st135{fill:none;stroke:#FFFFFF;stroke-width:0.4909;stroke-linecap:round;stroke-linejoin:round;}
	
		.st136{fill:none;stroke:#FFFFFF;stroke-width:0.4909;stroke-linecap:round;stroke-linejoin:round;stroke-dasharray:0,5.4413,0,5.4413;}
	
		.st137{fill:none;stroke:#FFFFFF;stroke-width:0.4909;stroke-linecap:round;stroke-linejoin:round;stroke-dasharray:0,5.4413,0,5.4413,0,5.4413;}
	.st138{fill:#00B1D0;stroke:#FFFFFF;stroke-width:0.5691;stroke-miterlimit:10;}
	.st139{fill:none;stroke:#FFFFFF;stroke-width:0.9819;stroke-linecap:round;stroke-linejoin:round;}
	
		.st140{fill:none;stroke:#FFFFFF;stroke-width:0.9819;stroke-linecap:round;stroke-linejoin:round;stroke-dasharray:0,5.4413,0,5.4413;}
	
		.st141{fill:none;stroke:#FFFFFF;stroke-width:0.9819;stroke-linecap:round;stroke-linejoin:round;stroke-dasharray:0,5.4413,0,5.4413,0,5.4413;}
	.st142{fill:#FFFFFF;stroke:#00B1D0;stroke-width:0.8292;stroke-miterlimit:10;}
	.st143{fill:none;stroke:#00B1D0;stroke-width:1.3186;stroke-miterlimit:10;}
</style>
<g>
	<g>
		<g>
			<g>
				<g>
					<line class="st120" x1="121.64" y1="1.8" x2="121.64" y2="1.8"/>
					<line class="st121" x1="121.64" y1="21.78" x2="121.64" y2="51.73"/>
					<line class="st122" x1="121.64" y1="61.72" x2="121.64" y2="231.49"/>
					<line class="st120" x1="121.64" y1="241.48" x2="121.64" y2="241.48"/>
				</g>
			</g>
			<g>
				<g>
					<line class="st120" x1="241.48" y1="121.64" x2="241.48" y2="121.64"/>
					<line class="st121" x1="221.5" y1="121.64" x2="191.54" y2="121.64"/>
					<line class="st122" x1="181.56" y1="121.64" x2="11.79" y2="121.64"/>
					<line class="st120" x1="1.8" y1="121.64" x2="1.8" y2="121.64"/>
				</g>
			</g>
		</g>
		<g>
			<g>
				<g>
					<line class="st120" x1="206.38" y1="36.9" x2="206.38" y2="36.9"/>
					<line class="st121" x1="192.25" y1="51.02" x2="171.07" y2="72.21"/>
					<line class="st122" x1="164.01" y1="79.27" x2="43.96" y2="199.32"/>
					<line class="st120" x1="36.9" y1="206.38" x2="36.9" y2="206.38"/>
				</g>
			</g>
			<g>
				<g>
					<line class="st120" x1="206.38" y1="206.38" x2="206.38" y2="206.38"/>
					<line class="st121" x1="192.25" y1="192.25" x2="171.07" y2="171.07"/>
					<line class="st122" x1="164.01" y1="164.01" x2="43.96" y2="43.96"/>
					<line class="st120" x1="36.9" y1="36.9" x2="36.9" y2="36.9"/>
				</g>
			</g>
		</g>
	</g>
	<g>
		<g>
			<circle class="st123" cx="121.64" cy="121.53" r="83.36"/>
			<circle class="st10" cx="121.64" cy="121.53" r="10.42"/>
		</g>
		<g>
			<g>
				<path class="st3" d="M101.87,101.32c-0.01,0.01-0.02,0.02-0.03,0.03c-11.91,11.93-13.59,29.93-3.3,43.62l-0.39,0.39
					c13.13,13.02,34.32,13,47.41-0.08c13.11-13.09,13.14-34.31,0.1-47.45l-0.18,0.18C131.79,87.72,113.8,89.41,101.87,101.32z"/>
				<g>
					<path class="st4" d="M121.95,75.49c0.51,0,1.03,0.03,1.54,0.05C122.98,75.52,122.46,75.49,121.95,75.49z"/>
				</g>
				<g>
					<path class="st4" d="M126.19,75.69c0.23,0.02,0.46,0.06,0.69,0.08C126.65,75.75,126.42,75.71,126.19,75.69z"/>
				</g>
				<g>
					<path class="st4" d="M113.49,76.27c1.08-0.2,2.16-0.34,3.25-0.47C115.65,75.92,114.57,76.07,113.49,76.27z"/>
				</g>
				<g>
					<path class="st4" d="M117.71,75.68c0.8-0.07,1.6-0.1,2.4-0.13C119.31,75.58,118.51,75.61,117.71,75.68z"/>
				</g>
				<g>
					<path class="st4" d="M152.11,47.99l0.02,14.6h18.85l-21.8,21.8c1.87,1.37,3.68,2.86,5.36,4.55l-8.88,8.88
						c13.04,13.14,13.01,34.36-0.1,47.45c-13.09,13.08-34.29,13.1-47.41,0.08l-8.67,8.68c-16.1-16.09-18.01-41.53-4.51-59.85
						l-0.11-0.11c-13.41,18.02-11.93,43.62,4.42,59.97c17.97,17.97,47.11,17.96,65.08-0.01c16.09-16.09,18-41.53,4.49-59.84
						l21.86-21.86l0.01,18.85l14.58,0V47.99L152.11,47.99z"/>
				</g>
				<g>
					<path class="st4" d="M113.37,76.29c-6.66,1.24-13.07,3.96-18.72,8.11l0.05,0.05C100.4,80.25,106.79,77.55,113.37,76.29z"/>
				</g>
				<g>
					<path class="st5" d="M120.11,75.55c0.61-0.02,1.23-0.06,1.84-0.06C121.34,75.49,120.72,75.53,120.11,75.55z"/>
				</g>
				<g>
					<path class="st5" d="M116.74,75.8c0.33-0.04,0.65-0.09,0.98-0.12C117.39,75.72,117.06,75.76,116.74,75.8z"/>
				</g>
				<g>
					<path class="st5" d="M113.37,76.29c0.04-0.01,0.08-0.02,0.12-0.02C113.45,76.28,113.41,76.28,113.37,76.29z"/>
				</g>
				<g>
					<path class="st5" d="M149.18,84.4c-6.66-4.89-14.37-7.78-22.3-8.63c7.83,0.86,15.52,3.72,22.25,8.68L149.18,84.4z"/>
				</g>
				<g>
					<path class="st5" d="M94.65,84.4L75.68,65.43l14.38-14.38l-9.73-9.73L65.95,55.69L53.38,43.13l-9.73,9.73l12.56,12.56
						L41.83,79.81l9.73,9.73l14.38-14.38l18.92,18.92c1.33-1.78,2.79-3.49,4.41-5.11C90.96,87.27,92.77,85.78,94.65,84.4z"/>
				</g>
				<g>
					<path class="st5" d="M123.49,75.54c0.9,0.03,1.8,0.06,2.7,0.15C125.29,75.61,124.39,75.57,123.49,75.54z"/>
				</g>
				<g>
					<path class="st5" d="M89.48,154.04l8.67-8.68c-0.04-0.04-0.08-0.07-0.12-0.11c-13.12-13.13-13.11-34.41,0.03-47.53
						c13.12-13.11,34.38-13.11,47.51,0c0.01,0.01,0.02,0.02,0.03,0.03c0.03,0.03,0.05,0.05,0.07,0.08l8.88-8.88
						c-1.68-1.68-3.49-3.18-5.36-4.55l-0.06,0.06c-6.73-4.96-14.42-7.82-22.25-8.68c-0.23-0.02-0.46-0.06-0.69-0.08
						c-0.9-0.09-1.8-0.12-2.7-0.15c-0.51-0.02-1.03-0.05-1.54-0.05c-0.62,0-1.23,0.04-1.84,0.06c-0.8,0.03-1.6,0.06-2.4,0.13
						c-0.33,0.03-0.65,0.08-0.98,0.12c-1.09,0.12-2.17,0.26-3.25,0.47c-0.04,0.01-0.08,0.02-0.12,0.02
						c-6.58,1.25-12.97,3.96-18.67,8.16l-0.05-0.05c-1.88,1.38-3.69,2.87-5.38,4.56c-1.62,1.62-3.08,3.33-4.41,5.11l0.11,0.11
						C71.46,112.5,73.38,137.95,89.48,154.04z"/>
				</g>
			</g>
			<g>
				<path class="st3" d="M101.87,141.74c-0.01-0.01-0.02-0.02-0.03-0.03c-11.91-11.93-13.59-29.93-3.3-43.62l-0.39-0.39
					c13.13-13.02,34.32-13,47.41,0.08c13.11,13.09,13.14,34.31,0.1,47.45l-0.18-0.18C131.79,155.34,113.8,153.66,101.87,141.74z"/>
				<g>
					<path class="st4" d="M121.95,167.57c0.51,0,1.03-0.03,1.54-0.05C122.98,167.54,122.46,167.57,121.95,167.57z"/>
				</g>
				<g>
					<path class="st4" d="M126.19,167.38c0.23-0.02,0.46-0.06,0.69-0.08C126.65,167.32,126.42,167.35,126.19,167.38z"/>
				</g>
				<g>
					<path class="st4" d="M113.49,166.8c1.08,0.2,2.16,0.34,3.25,0.47C115.65,167.15,114.57,167,113.49,166.8z"/>
				</g>
				<g>
					<path class="st4" d="M117.71,167.38c0.8,0.07,1.6,0.1,2.4,0.13C119.31,167.49,118.51,167.45,117.71,167.38z"/>
				</g>
				<g>
					<path class="st4" d="M152.11,195.07l0.02-14.6h18.85l-21.8-21.8c1.87-1.37,3.68-2.86,5.36-4.55l-8.88-8.88
						c13.04-13.14,13.01-34.36-0.1-47.45c-13.09-13.08-34.29-13.1-47.41-0.08l-8.67-8.68c-16.1,16.09-18.01,41.53-4.51,59.85
						l-0.11,0.11c-13.41-18.02-11.93-43.62,4.42-59.97c17.97-17.97,47.11-17.96,65.08,0.01c16.09,16.09,18,41.53,4.49,59.84
						l21.86,21.86l0.01-18.85l14.58,0v43.18L152.11,195.07z"/>
				</g>
				<g>
					<path class="st4" d="M113.37,166.78c-6.66-1.24-13.07-3.96-18.72-8.11l0.05-0.05C100.4,162.82,106.79,165.52,113.37,166.78z"/>
				</g>
				<g>
					<path class="st5" d="M120.11,167.52c0.61,0.02,1.23,0.06,1.84,0.06C121.34,167.57,120.72,167.54,120.11,167.52z"/>
				</g>
				<g>
					<path class="st5" d="M116.74,167.27c0.33,0.04,0.65,0.09,0.98,0.12C117.39,167.35,117.06,167.3,116.74,167.27z"/>
				</g>
				<g>
					<path class="st5" d="M113.37,166.78c0.04,0.01,0.08,0.02,0.12,0.02C113.45,166.79,113.41,166.78,113.37,166.78z"/>
				</g>
				<g>
					<path class="st5" d="M149.18,158.67c-6.66,4.89-14.37,7.78-22.3,8.63c7.83-0.86,15.52-3.72,22.25-8.68L149.18,158.67z"/>
				</g>
				<g>
					<path class="st5" d="M94.65,158.67l-18.97,18.97l14.38,14.38l-9.73,9.73l-14.38-14.38l-12.56,12.56l-9.73-9.73l12.56-12.56
						l-14.38-14.38l9.73-9.73l14.38,14.38l18.92-18.92c1.33,1.78,2.79,3.49,4.41,5.11C90.96,155.79,92.77,157.29,94.65,158.67z"/>
				</g>
				<g>
					<path class="st5" d="M123.49,167.53c0.9-0.03,1.8-0.06,2.7-0.15C125.29,167.46,124.39,167.5,123.49,167.53z"/>
				</g>
				<g>
					<path class="st5" d="M89.48,89.03l8.67,8.68c-0.04,0.04-0.08,0.07-0.12,0.11c-13.12,13.13-13.11,34.41,0.03,47.53
						c13.12,13.11,34.38,13.11,47.51,0c0.01-0.01,0.02-0.02,0.03-0.03c0.03-0.03,0.05-0.05,0.07-0.08l8.88,8.88
						c-1.68,1.68-3.49,3.18-5.36,4.55l-0.06-0.06c-6.73,4.96-14.42,7.82-22.25,8.68c-0.23,0.02-0.46,0.06-0.69,0.08
						c-0.9,0.09-1.8,0.12-2.7,0.15c-0.51,0.02-1.03,0.05-1.54,0.05c-0.62,0-1.23-0.04-1.84-0.06c-0.8-0.03-1.6-0.06-2.4-0.13
						c-0.33-0.03-0.65-0.08-0.98-0.12c-1.09-0.12-2.17-0.26-3.25-0.47c-0.04-0.01-0.08-0.02-0.12-0.02
						c-6.58-1.25-12.97-3.96-18.67-8.16l-0.05,0.05c-1.88-1.38-3.69-2.87-5.38-4.56c-1.62-1.62-3.08-3.33-4.41-5.11l0.11-0.11
						C71.46,130.56,73.38,105.12,89.48,89.03z"/>
				</g>
			</g>
		</g>
	</g>
	<g>
		<g>
			<g>
				<g>
					<line class="st124" x1="121.64" y1="1.8" x2="121.64" y2="1.8"/>
					<line class="st125" x1="121.64" y1="21.78" x2="121.64" y2="51.73"/>
					<line class="st126" x1="121.64" y1="61.72" x2="121.64" y2="231.49"/>
					<line class="st124" x1="121.64" y1="241.48" x2="121.64" y2="241.48"/>
				</g>
			</g>
			<g>
				<g>
					<line class="st124" x1="241.48" y1="121.64" x2="241.48" y2="121.64"/>
					<line class="st125" x1="221.5" y1="121.64" x2="191.54" y2="121.64"/>
					<line class="st126" x1="181.56" y1="121.64" x2="11.79" y2="121.64"/>
					<line class="st124" x1="1.8" y1="121.64" x2="1.8" y2="121.64"/>
				</g>
			</g>
		</g>
		<g>
			<g>
				<g>
					<line class="st124" x1="206.38" y1="36.9" x2="206.38" y2="36.9"/>
					<line class="st125" x1="192.25" y1="51.02" x2="171.07" y2="72.21"/>
					<line class="st126" x1="164.01" y1="79.27" x2="43.96" y2="199.32"/>
					<line class="st124" x1="36.9" y1="206.38" x2="36.9" y2="206.38"/>
				</g>
			</g>
			<g>
				<g>
					<line class="st124" x1="206.38" y1="206.38" x2="206.38" y2="206.38"/>
					<line class="st125" x1="192.25" y1="192.25" x2="171.07" y2="171.07"/>
					<line class="st126" x1="164.01" y1="164.01" x2="43.96" y2="43.96"/>
					<line class="st124" x1="36.9" y1="36.9" x2="36.9" y2="36.9"/>
				</g>
			</g>
		</g>
	</g>
</g>
</svg>
