<?xml version="1.0" encoding="utf-8"?>
<!-- Generator: Adobe Illustrator 25.0.0, SVG Export Plug-In . SVG Version: 6.00 Build 0)  -->
<svg version="1.1" id="圖層_1" xmlns="http://www.w3.org/2000/svg" xmlns:xlink="http://www.w3.org/1999/xlink" x="0px" y="0px"
	 viewBox="0 0 727.72 402.93" style="enable-background:new 0 0 727.72 402.93;" xml:space="preserve">
<style type="text/css">
	.st0{clip-path:url(#SVGID_2_);}
	.st1{opacity:0.5;clip-path:url(#SVGID_4_);}
	.st2{opacity:0.3;}
	.st3{fill:none;}
	.st4{fill:#FFC6B9;}
	.st5{fill:#99FFCC;}
	.st6{fill:#FFC5B8;}
	.st7{clip-path:url(#SVGID_6_);}
	.st8{opacity:0.3;fill:#00B1D0;}
	.st9{clip-path:url(#SVGID_8_);}
	.st10{fill:#FFFFFF;}
	.st11{fill:none;stroke:#00B1D0;stroke-width:5.3642;stroke-miterlimit:10;}
	.st12{opacity:0.5;clip-path:url(#SVGID_10_);}
	.st13{fill:#00B0CF;}
	.st14{fill:#00B1D0;}
	.st15{fill:none;stroke:#FFFFFF;stroke-width:3;stroke-miterlimit:10;}
	.st16{fill:url(#SVGID_15_);}
	.st17{fill:none;stroke:#00B1D0;stroke-width:4;stroke-miterlimit:10;}
	.st18{fill:none;stroke:#00B1D0;stroke-miterlimit:10;}
	.st19{fill:none;stroke:#FFC6B9;stroke-width:0.5966;stroke-miterlimit:10;}
	.st20{opacity:0.5;}
	.st21{clip-path:url(#SVGID_17_);}
	.st22{clip-path:url(#SVGID_19_);}
	.st23{clip-path:url(#SVGID_21_);}
	.st24{fill:#FFC8A5;}
	.st25{fill:#FFF5F1;}
	.st26{fill:#1E1E1C;}
	.st27{fill:#162026;}
	.st28{fill:#F9EBE5;}
	.st29{fill:#363332;}
	.st30{fill:#FFBD98;}
	.st31{clip-path:url(#SVGID_29_);fill:#121C21;}
	.st32{fill:#121C21;}
	.st33{fill:#001B2F;}
	.st34{fill:#054B8D;}
	.st35{fill:#656DB4;}
	.st36{clip-path:url(#SVGID_31_);fill:#121C21;}
	.st37{fill:#8A8DCF;}
	.st38{fill:#59619C;}
	.st39{fill:#3E4180;}
	.st40{fill:#985126;}
	.st41{fill:#1E2021;}
	.st42{fill:#FFD580;}
	.st43{fill:#8A461D;}
	.st44{clip-path:url(#SVGID_33_);fill:#121C21;}
	.st45{fill:#985024;}
	.st46{fill:#263F47;}
	.st47{fill:#9D9A9D;}
	.st48{fill:none;stroke:#FCB96C;stroke-width:0.4339;stroke-linecap:round;stroke-linejoin:round;stroke-miterlimit:10;}
	.st49{fill:#804B2A;}
	.st50{fill:#FFAB76;}
	.st51{fill:#723D23;}
	.st52{fill:#824B2D;}
	.st53{fill:#FF8282;}
	.st54{fill:#F76E6D;}
	.st55{fill:none;stroke:#FB8148;stroke-width:0.3303;stroke-linecap:round;stroke-miterlimit:10;}
	.st56{fill:#FFC9B2;}
	.st57{fill:#F59458;}
	.st58{fill:#FFE7CB;}
	.st59{fill:#242221;}
	.st60{fill:#FCB894;}
	.st61{fill:#353432;}
	.st62{fill:#FFB369;}
	.st63{fill:#E89983;}
	.st64{fill:#B47253;}
	.st65{fill:#FF9F6F;}
	.st66{fill:#00283F;}
	.st67{fill:#FB8148;}
	.st68{fill:none;stroke:#FB8148;stroke-width:0.286;stroke-linecap:round;stroke-miterlimit:10;}
	.st69{fill:none;stroke:#001B2F;stroke-width:0.286;stroke-linecap:round;stroke-linejoin:round;stroke-miterlimit:10;}
	.st70{clip-path:url(#SVGID_39_);fill:#121C21;}
	.st71{fill:#FF7983;}
	.st72{fill:#FFA770;}
	.st73{fill:#474447;}
	.st74{fill:#575456;}
	.st75{clip-path:url(#SVGID_41_);fill:#121C21;}
	.st76{fill:#FF8A54;}
	.st77{fill:none;stroke:#474447;stroke-width:0.3794;stroke-linecap:round;stroke-linejoin:round;stroke-miterlimit:10;}
	.st78{fill:#F56E6C;}
	.st79{clip-path:url(#SVGID_43_);}
	.st80{fill:none;stroke:#FF8986;stroke-width:0.2772;stroke-miterlimit:10;}
	.st81{fill:#007079;}
	.st82{fill:#A05B30;}
	.st83{fill:#AF6437;}
	.st84{fill:none;stroke:#F56E6C;stroke-width:0.7393;stroke-linecap:round;stroke-linejoin:round;stroke-miterlimit:10;}
	.st85{fill:#FF5A6A;}
	.st86{fill:#FF6C77;}
	.st87{fill:#000209;}
	.st88{fill:none;stroke:#FF4A62;stroke-width:0.7308;stroke-linecap:round;stroke-linejoin:round;stroke-miterlimit:10;}
	.st89{fill:#000D26;}
	.st90{fill:#FF4A62;}
	.st91{fill:none;stroke:#FF5A6A;stroke-width:0.2741;stroke-linecap:round;stroke-linejoin:round;stroke-miterlimit:10;}
	.st92{fill:#986E61;}
	.st93{fill:#A67E6F;}
	.st94{fill:#DEC4BF;}
	.st95{fill:none;stroke:#C7A6A0;stroke-width:0.2741;stroke-linecap:round;stroke-linejoin:round;stroke-miterlimit:10;}
	.st96{clip-path:url(#SVGID_51_);}
	.st97{clip-path:url(#SVGID_53_);}
	.st98{clip-path:url(#SVGID_55_);}
	.st99{clip-path:url(#SVGID_63_);fill:#121C21;}
	.st100{clip-path:url(#SVGID_65_);fill:#121C21;}
	.st101{clip-path:url(#SVGID_67_);fill:#121C21;}
	.st102{clip-path:url(#SVGID_73_);fill:#121C21;}
	.st103{clip-path:url(#SVGID_75_);fill:#121C21;}
	.st104{clip-path:url(#SVGID_77_);}
	.st105{fill:none;stroke:#FFFFFF;stroke-width:1.8021;stroke-linecap:round;stroke-linejoin:round;}
	
		.st106{fill:none;stroke:#FFFFFF;stroke-width:1.8021;stroke-linecap:round;stroke-linejoin:round;stroke-dasharray:0,19.9729,0,19.9729;}
	
		.st107{fill:none;stroke:#FFFFFF;stroke-width:1.8021;stroke-linecap:round;stroke-linejoin:round;stroke-dasharray:0,19.9729,0,19.9729,0,19.9729;}
	.st108{fill:#00B1D0;stroke:#FFFFFF;stroke-width:2.0891;stroke-miterlimit:10;}
	.st109{fill:none;stroke:#FFFFFF;stroke-width:3.6041;stroke-linecap:round;stroke-linejoin:round;}
	
		.st110{fill:none;stroke:#FFFFFF;stroke-width:3.6041;stroke-linecap:round;stroke-linejoin:round;stroke-dasharray:0,19.9729,0,19.9729;}
	
		.st111{fill:none;stroke:#FFFFFF;stroke-width:3.6041;stroke-linecap:round;stroke-linejoin:round;stroke-dasharray:0,19.9729,0,19.9729,0,19.9729;}
	.st112{fill:none;stroke:#00B1D0;stroke-width:3.0676;stroke-miterlimit:10;}
	.st113{fill:none;stroke:#FFFFFF;stroke-width:0.4186;stroke-linecap:round;stroke-linejoin:round;}
	
		.st114{fill:none;stroke:#FFFFFF;stroke-width:0.4186;stroke-linecap:round;stroke-linejoin:round;stroke-dasharray:0,4.6396,0,4.6396;}
	
		.st115{fill:none;stroke:#FFFFFF;stroke-width:0.4186;stroke-linecap:round;stroke-linejoin:round;stroke-dasharray:0,4.6396,0,4.6396,0,4.6396;}
	.st116{fill:#00B1D0;stroke:#FFFFFF;stroke-width:0.4853;stroke-miterlimit:10;}
	.st117{fill:none;stroke:#FFFFFF;stroke-width:0.8372;stroke-linecap:round;stroke-linejoin:round;}
	
		.st118{fill:none;stroke:#FFFFFF;stroke-width:0.8372;stroke-linecap:round;stroke-linejoin:round;stroke-dasharray:0,4.6396,0,4.6396;}
	
		.st119{fill:none;stroke:#FFFFFF;stroke-width:0.8372;stroke-linecap:round;stroke-linejoin:round;stroke-dasharray:0,4.6396,0,4.6396,0,4.6396;}
	.st120{fill:none;stroke:#FFFFFF;stroke-width:0.4909;stroke-linecap:round;stroke-linejoin:round;}
	
		.st121{fill:none;stroke:#FFFFFF;stroke-width:0.4909;stroke-linecap:round;stroke-linejoin:round;stroke-dasharray:0,5.4413,0,5.4413;}
	
		.st122{fill:none;stroke:#FFFFFF;stroke-width:0.4909;stroke-linecap:round;stroke-linejoin:round;stroke-dasharray:0,5.4413,0,5.4413,0,5.4413;}
	.st123{fill:#00B1D0;stroke:#FFFFFF;stroke-width:0.5691;stroke-miterlimit:10;}
	.st124{fill:none;stroke:#FFFFFF;stroke-width:0.9819;stroke-linecap:round;stroke-linejoin:round;}
	
		.st125{fill:none;stroke:#FFFFFF;stroke-width:0.9819;stroke-linecap:round;stroke-linejoin:round;stroke-dasharray:0,5.4413,0,5.4413;}
	
		.st126{fill:none;stroke:#FFFFFF;stroke-width:0.9819;stroke-linecap:round;stroke-linejoin:round;stroke-dasharray:0,5.4413,0,5.4413,0,5.4413;}
	.st127{fill:#FFFFFF;stroke:#00B1D0;stroke-width:0.8292;stroke-miterlimit:10;}
	.st128{fill:none;stroke:#00B1D0;stroke-width:1.3186;stroke-miterlimit:10;}
</style>
<g>
	<g>
		<line class="st15" x1="618.66" y1="1.06" x2="726.66" y2="109.06"/>
		<line class="st15" x1="605.66" y1="14.06" x2="713.66" y2="122.06"/>
		<line class="st15" x1="592.66" y1="27.06" x2="700.66" y2="135.06"/>
		<line class="st15" x1="579.66" y1="40.06" x2="687.66" y2="148.06"/>
		<line class="st15" x1="566.66" y1="53.06" x2="674.66" y2="161.06"/>
		<line class="st15" x1="553.66" y1="66.06" x2="661.66" y2="174.06"/>
		<line class="st15" x1="540.66" y1="79.06" x2="648.66" y2="187.06"/>
		<line class="st15" x1="527.66" y1="92.06" x2="635.66" y2="200.06"/>
		<line class="st15" x1="514.66" y1="105.06" x2="622.66" y2="213.06"/>
		<line class="st15" x1="501.66" y1="118.06" x2="609.66" y2="226.06"/>
		<line class="st15" x1="488.66" y1="131.06" x2="596.66" y2="239.06"/>
		<line class="st15" x1="475.66" y1="144.06" x2="583.66" y2="252.06"/>
		<line class="st15" x1="462.66" y1="157.06" x2="570.66" y2="265.06"/>
		<line class="st15" x1="449.66" y1="170.06" x2="557.66" y2="278.06"/>
		<line class="st15" x1="436.66" y1="183.06" x2="544.66" y2="291.06"/>
		<line class="st15" x1="423.66" y1="196.06" x2="531.66" y2="304.06"/>
		<line class="st15" x1="410.66" y1="209.06" x2="518.66" y2="317.06"/>
		<line class="st15" x1="397.66" y1="222.06" x2="505.66" y2="330.06"/>
		<line class="st15" x1="384.66" y1="235.06" x2="492.66" y2="343.06"/>
		<line class="st15" x1="371.66" y1="248.06" x2="479.66" y2="356.06"/>
	</g>
	<g>
		<line class="st15" x1="350.81" y1="250.19" x2="350.81" y2="402.93"/>
		<line class="st15" x1="332.43" y1="250.19" x2="332.43" y2="402.93"/>
		<line class="st15" x1="314.04" y1="250.19" x2="314.04" y2="402.93"/>
		<line class="st15" x1="295.66" y1="250.19" x2="295.66" y2="402.93"/>
		<line class="st15" x1="277.27" y1="250.19" x2="277.27" y2="402.93"/>
		<line class="st15" x1="258.89" y1="250.19" x2="258.89" y2="402.93"/>
		<line class="st15" x1="240.5" y1="250.19" x2="240.5" y2="402.93"/>
		<line class="st15" x1="222.12" y1="250.19" x2="222.12" y2="402.93"/>
		<line class="st15" x1="203.73" y1="250.19" x2="203.73" y2="402.93"/>
		<line class="st15" x1="185.35" y1="250.19" x2="185.35" y2="402.93"/>
		<line class="st15" x1="166.96" y1="250.19" x2="166.96" y2="402.93"/>
		<line class="st15" x1="148.58" y1="250.19" x2="148.58" y2="402.93"/>
		<line class="st15" x1="130.19" y1="250.19" x2="130.19" y2="402.93"/>
		<line class="st15" x1="111.81" y1="250.19" x2="111.81" y2="402.93"/>
		<line class="st15" x1="93.42" y1="250.19" x2="93.42" y2="402.93"/>
		<line class="st15" x1="75.04" y1="250.19" x2="75.04" y2="402.93"/>
		<line class="st15" x1="56.65" y1="250.19" x2="56.65" y2="402.93"/>
		<line class="st15" x1="38.27" y1="250.19" x2="38.27" y2="402.93"/>
		<line class="st15" x1="19.88" y1="250.19" x2="19.88" y2="402.93"/>
		<line class="st15" x1="1.5" y1="250.19" x2="1.5" y2="402.93"/>
	</g>
	<g>
		<g class="st20">
			<polygon points="548.77,99.44 545.21,103.84 548.19,103.43 551.67,99.11 			"/>
			<polygon points="580.07,83.98 580.8,86.3 584.75,82.8 584.01,80.54 			"/>
			<path d="M576.91,62.77l-4.23,10.12c-0.85,2.03-2.08,4.23-3.65,6.52l-17.11,20.51l-5.14,0.99l16.39-21.61l7.2-17.76L576.91,62.77z
				"/>
			<path d="M545.64,102.92c0.25-0.23,0.51-0.31,0.52-0.16c0.02,0.3,0.2,0.67,0.96,0.6c0.79-0.08,1.5-0.62,1.91-1
				c0.22-0.2,0.46-0.31,0.52-0.22l2.08,2.89c0.13,0.18,0.08,0.5-0.14,0.9l0,0c-0.2,0.37-0.72,0.77-0.98,0.76l-7.29-0.41
				c-0.29-0.02-0.21-0.39,0.16-0.83l1.84-2.12c0.03-0.04,0.06-0.07,0.1-0.1L545.64,102.92z"/>
			<path d="M557.25,74.28c-0.24,1.2-1.78,3.02-3.45,4.07c-1.67,1.05-2.83,0.93-2.59-0.27c0.24-1.2,1.78-3.02,3.45-4.07
				C556.33,72.96,557.49,73.09,557.25,74.28z"/>
			<polygon points="557,74.99 560.46,68.76 557.63,69.79 554.59,75.08 			"/>
			<path d="M590.9,50.21c1.51-0.62,2.13,0.06,1.39,1.52c-0.74,1.46-2.57,3.16-4.08,3.78c-1.51,0.62-2.13-0.06-1.39-1.52
				C587.56,52.52,589.39,50.83,590.9,50.21z"/>
			<polygon points="591.63,49.99 586.93,50.17 584.51,53.25 588.37,53.23 			"/>
			<polygon points="585.51,54.61 576.55,52.64 581.63,46.95 590.59,48.91 			"/>
			<path d="M581.8,51.71l-12.42,7.58l2.98-12.8c0.46-1.99,3.02-4.93,5.71-6.57l0.29-0.18c4.01-2.45,6.71-2.03,6.01,0.94L581.8,51.71
				z"/>
			<path d="M581.8,51.71l3.53,28.6l-6.44,5.38l-3.34-13.55l-5.85-6.63c-0.29-0.28-0.57-0.59-0.78-0.95c-0.4-0.69-0.42-1.7-0.13-2.89
				l0.58-2.37L581.8,51.71z"/>
			<path d="M580.18,86.2c0.05-0.2,0.34-0.49,0.57-0.57c0.45-0.17,1.23-0.56,2.27-1.47c1.09-0.94,1.41-1.56,1.5-1.89
				c0.05-0.17,0.27-0.42,0.49-0.54l7.16-3.95c0.43-0.24,0.81-0.33,1.03-0.25l0,0c0.21,0.07-0.02,0.52-0.44,0.86l-11.59,9.22
				c-0.46,0.36-0.87,0.45-0.9,0.19l-0.17-1.26c0-0.02,0-0.05,0.01-0.07L580.18,86.2z"/>
			<path d="M559.82,71.23l-5.28,1.92l7.78-14.98l11.51-14.45c1.18-1.58,3.11-2.97,4.3-3.09l0,0c1.19-0.13,1.2,1.05,0.02,2.63
				l-10.95,13.7L559.82,71.23z"/>
			<path d="M577.72,40.32c0,0-0.75,1.84,1.86,0.47c0.4-0.21,0.84-0.5,1.25-0.82c0.75-0.59,1.68-1.43,1.73-2.33"/>
			<path d="M580.24,40.29l-0.4,0.24c-1.32,0.81-2.21,0.67-1.98-0.31l1.51-6.5l4.77-2.91l-1.59,6.81
				C582.37,38.43,581.33,39.62,580.24,40.29z"/>
			<line x1="571.04" y1="52.17" x2="574.53" y2="47.94"/>
			<path d="M565.4,57.05c0,0,0.87-0.53,1.1,0.22"/>
			<line x1="578.7" y1="56.1" x2="580.89" y2="56.71"/>
			<line x1="578.78" y1="84.33" x2="585.03" y2="79.32"/>
			<line x1="569.33" y1="60.06" x2="581.69" y2="52.52"/>
			<polyline points="574.52,56.89 580.63,68.75 581.96,81.58 			"/>
			<path d="M581.24,35.95c0,0-0.7,1.96,1.44,1.15l0.28-1.19L581.24,35.95z"/>
			<ellipse transform="matrix(0.7332 -0.68 0.68 0.7332 133.7891 404.6116)" cx="582.51" cy="31.81" rx="6.78" ry="2.51"/>
			<path d="M583.05,36.14L583.05,36.14c-1.36,0.83-2.27,0.69-2.04-0.32l0.85-3.67l5.84-3.56l-0.7,2.99
				C586.69,32.96,584.92,35,583.05,36.14z"/>
			<path d="M587.34,29.6l0.84,0.54c0.11,0.1-0.15,0.48-0.48,0.68l-1.35,0.98L587.34,29.6z"/>
			<g>
				<defs>
					
						<ellipse id="SVGID_50_" transform="matrix(0.7332 -0.68 0.68 0.7332 133.7891 404.6116)" cx="582.51" cy="31.81" rx="6.78" ry="2.51"/>
				</defs>
				<use xlink:href="#SVGID_50_"  style="overflow:visible;"/>
				<clipPath id="SVGID_2_">
					<use xlink:href="#SVGID_50_"  style="overflow:visible;"/>
				</clipPath>
				<path class="st0" d="M582.64,33.17c0,0,1.96-2.23,1.46-3.6c0,0,3.64-1.95,4.67-3.39c0,0-2.03-2.79-8.33,3.04
					c-6.3,5.83-4.79,9.07-4.79,9.07l4.52-1.89L582.64,33.17z"/>
			</g>
			<path d="M582.92,32.98c-0.14,0.58-0.88,1.44-1.67,1.92c-0.79,0.48-1.31,0.4-1.18-0.18c0.14-0.58,0.88-1.44,1.67-1.92
				C582.53,32.32,583.06,32.4,582.92,32.98z"/>
			<path d="M578.73,36.06l-0.3,1.75c0,0,2.57-1.19,2.99-3l-1.64,1.18L578.73,36.06z"/>
		</g>
		<g class="st20">
			<g>
				<path d="M579.38,127.69c-0.01,0.01-0.02,0.01-0.04,0.02c-0.09,0.05-0.14,0.02-0.12-0.05l2.7-7.23c0.03-0.08,0.13-0.18,0.22-0.23
					c0.09-0.05,0.14-0.02,0.12,0.05l-2.7,7.23C579.54,127.55,579.46,127.63,579.38,127.69z"/>
				<polygon points="597.02,154.51 599.61,155 596.03,158.72 593.51,158.21 				"/>
				<polygon points="577.35,171.87 576.78,175.09 572.86,177.31 573.44,174.13 				"/>
				<path d="M577.41,148.29l0.97,6.72c0.19,1.35,0.8,2.37,1.79,3.02l12.7,1.54l6.03-6.03l-11.8-3.62l-1.4-12.13L577.41,148.29z"/>
				<path d="M599.46,154.45c-0.21,0.06-0.51,0.33-0.59,0.54c-0.16,0.41-0.54,1.12-1.46,2.11c-0.96,1.02-1.62,1.35-1.97,1.45
					c-0.19,0.05-0.44,0.26-0.56,0.47l-3.86,6.58c-0.23,0.4-0.31,0.73-0.21,0.93l0,0c0.1,0.18,0.57-0.05,0.91-0.44l9.34-10.84
					c0.37-0.43,0.44-0.8,0.15-0.81l-1.4-0.07c-0.02,0-0.05,0-0.08,0.01L599.46,154.45z"/>
				<path d="M577.66,141.02l-5.19,18.57l-0.52,16.07l6.33-3.9l2-16.89l6.33-11.56c0.32-0.7,2.89-4.82,3.14-5.5
					c0.46-1.28,0.55-2.35,0.34-3.18l-0.43-1.64L577.66,141.02z"/>
				<path d="M577.37,174.12c-0.06-0.11-0.35,0.02-0.57,0.26c-0.44,0.47-1.2,1.19-2.23,1.8c-1.08,0.63-1.41,0.5-1.52,0.31
					c-0.05-0.1-0.27-0.02-0.49,0.17l-6.99,6.3c-0.42,0.38-0.78,0.82-0.99,1.21l0,0c-0.2,0.37,0.04,0.47,0.46,0.2l11.46-7.53
					c0.45-0.3,0.85-0.79,0.87-1.08l0.1-1.44c0-0.02,0-0.04-0.01-0.06L577.37,174.12z"/>
				<path d="M577.66,141.02l12.01-8.02l1.19-10.91c0.27-1.84-1.11-2.87-3.79-1.12l-0.29,0.19c-3.99,2.61-7.56,6.95-7.96,9.7
					L577.66,141.02z"/>
				<path d="M584.18,124.51l0.4-0.26c1.32-0.86,2.49-2.29,2.62-3.2l0.89-6.02l-4.74,3.1l-0.93,6.31
					C582.3,125.19,583.09,125.22,584.18,124.51z"/>
				<path d="M579.81,120.44c-0.29,1.96,1.78,2.04,4.63,0.18c2.85-1.86,5.39-4.96,5.68-6.92c0.29-1.96-1.78-2.04-4.63-0.18
					C582.64,115.38,580.1,118.48,579.81,120.44z"/>
				<path d="M582.43,123.27L582.43,123.27c1.35-0.88,2.56-2.35,2.7-3.28l0.5-3.4l-5.81,3.8l-0.41,2.77
					C579.22,124.43,580.57,124.48,582.43,123.27z"/>
				<path d="M579.84,121.13l-1.29,1.88c-0.19,0.29-0.01,0.38,0.32,0.17l1.28-0.68L579.84,121.13z"/>
				<g>
					<defs>
						<path id="SVGID_52_" d="M579.81,120.44c-0.29,1.96,1.78,2.04,4.63,0.18c2.85-1.86,5.39-4.96,5.68-6.92
							c0.29-1.96-1.78-2.04-4.63-0.18C582.64,115.38,580.1,118.48,579.81,120.44z"/>
					</defs>
					<use xlink:href="#SVGID_52_"  style="overflow:visible;"/>
					<clipPath id="SVGID_4_">
						<use xlink:href="#SVGID_52_"  style="overflow:visible;"/>
					</clipPath>
					<path style="clip-path:url(#SVGID_4_);" d="M584.23,118.95c0,0-1.51-0.03-0.28-2.46c0,0-3.74,2.71-4.41,2.35
						c0,0,3.75-6.38,9.17-7.99c5.42-1.6,2.12,4.62,2.12,4.62l-4.87,4.03L584.23,118.95z"/>
				</g>
				<path d="M587.9,117.04l0.23,1.24c0,0-2.79,2.27-3.08,1l1.55-0.83L587.9,117.04z"/>
				<polygon points="583.21,120.47 583.81,120.07 584.14,117.79 583.54,118.18 				"/>
				<path d="M579.45,122.87c0,0,2.35-2.02,4.35-2.79l0.38,1.61c0,0-0.79,1.16-2.64,2.12C579.43,124.89,579.24,123.62,579.45,122.87z
					"/>
				<path d="M584.19,121.68c0,0,0.95-1.55,0.05-2.46l-0.45-0.87l-0.67,2.69L584.19,121.68z"/>
				<path d="M583.95,119.13c-0.08,0.54,0.49,0.56,1.27,0.05s1.48-1.36,1.56-1.9c0.08-0.54-0.49-0.56-1.27-0.05
					C584.72,117.74,584.03,118.59,583.95,119.13z"/>
				<polygon points="587.93,120.48 587.96,119.48 581.43,125.38 581.07,127.34 586.25,123.25 				"/>
				<path d="M567.19,157.02c-1.57,1.03-3.19,1.48-4.84,1.34c-2.58-0.21-3.46-1.13-2.6-2.73c1.08-2,4.44-4.27,4.58-4.36c0,0,0,0,0,0
					c0.1-0.06,0.17-0.06,0.16,0c-0.01,0.07-0.09,0.17-0.19,0.24c-0.03,0.02-3.27,2.21-4.24,4.01c-0.79,1.46,0.08,2.31,2.57,2.52
					c2.2,0.18,4.31-0.7,6.29-2.63c4.91-4.78,7.94-15.21,6.99-18.8c-0.47-1.76,0.08-3.64,0.62-4.9c0.41-0.95,1.12-2.07,2.12-3.32
					c3.52-4.4,6.06-9.75,6.08-9.8c0.04-0.08,0.14-0.18,0.23-0.22c0.09-0.04,0.13,0,0.09,0.08c-0.03,0.05-2.6,5.47-6.18,9.95
					c-0.95,1.19-1.63,2.26-2.02,3.16c-0.52,1.23-1.05,3.05-0.6,4.78c0.96,3.64-2.01,14.12-7.21,19.18
					C568.44,156.1,567.82,156.61,567.19,157.02z"/>
				<path d="M562.35,153.69l7.88-3.04c0.13-0.05,0.28-0.19,0.35-0.32l1.68-3.13c0.07-0.13,0.02-0.19-0.11-0.14l-7.88,3.04
					c-0.13,0.05-0.28,0.19-0.35,0.32l-1.68,3.13C562.18,153.68,562.23,153.74,562.35,153.69z"/>
				<g>
					<path d="M586.94,127.31l-5.74,9.98l-0.11,0.19c-0.23,0.41-0.59,0.83-0.98,1.2l-12.44,11.77l-1.26-0.91l11.94-12.14l-1.09,1.39
						l4.86-9.65L586.94,127.31z"/>
					<path d="M565.54,149.81c-1.4,1.49-1.88,2.94-1.08,3.23c0.8,0.29,2.58-0.69,3.98-2.18c1.4-1.49,1.88-2.94,1.08-3.23
						C568.72,147.34,566.94,148.32,565.54,149.81z"/>
					<path d="M586.91,129l2.3-5.7c0.66-1.49-0.16-2.13-1.83-1.43l0,0c-1.67,0.71-3.43,2.45-4.23,3.99l-3.77,6.32L586.91,129z"/>
				</g>
			</g>
			<line x1="577.81" y1="141.9" x2="589.39" y2="134.11"/>
			<polyline points="583.58,138.13 576.84,157.04 575.35,172.28 			"/>
			<line x1="572.3" y1="174.28" x2="578.29" y2="170.36"/>
		</g>
		<g class="st20">
			<g>
				<g>
					<path d="M516.85,274.78l5.54,3.96l0.04,0.03c0.33,0.24,0.05,0.99-0.64,1.76l-9.8,12.58l-1.58-0.27l9.35-12.66l-0.6,1.78
						l-6.05-3.44L516.85,274.78z"/>
					<path d="M507.84,296.1c-0.13,0.95,0.89,0.97,2.27,0.06c1.39-0.91,2.61-2.42,2.74-3.36c0.13-0.95-0.89-0.97-2.27-0.06
						C509.2,293.65,507.97,295.15,507.84,296.1z"/>
					<path d="M520.98,274.69l-3.94-0.29c-1.13-0.05-2.26,0.66-3.45,1.95l0,0c-0.99,1.06-1.38,2.08-0.85,2.73l1.6,2.28L520.98,274.69
						z"/>
				</g>
				<path d="M516.36,301.55l0.63,14.5l2.46-1.66c0,0,2.54-10.3,2.12-16.23L516.36,301.55z"/>
				<path d="M526.68,293.42l14.76,1.3l2.09-2.3c0,0-6.03-3.47-12.31-3.87L526.68,293.42z"/>
				<path d="M518.68,270.93l2.97-1.64c2.76-1.27,4.62-0.65,4.57,1.23l-1.1,7.57l-9.8,7.62l-0.1-4.75c0,0-2.36,1.32-2.18-0.32
					c0.18-1.64,1-5.33,3.57-8.19L518.68,270.93z"/>
				<g>
					<defs>
						<path id="SVGID_54_" d="M518.68,270.93l2.97-1.64c2.76-1.27,4.62-0.65,4.57,1.23l-1.1,7.57l-9.8,7.62l-0.1-4.75
							c0,0-2.36,1.32-2.18-0.32c0.18-1.64,1-5.33,3.57-8.19L518.68,270.93z"/>
					</defs>
					<use xlink:href="#SVGID_54_"  style="overflow:visible;"/>
					<clipPath id="SVGID_6_">
						<use xlink:href="#SVGID_54_"  style="overflow:visible;"/>
					</clipPath>
					<g class="st7">
						<line x1="513.2" y1="286.44" x2="526.62" y2="275.99"/>
						<line x1="513.01" y1="285.76" x2="526.43" y2="275.32"/>
						<line x1="512.81" y1="285.08" x2="526.24" y2="274.64"/>
						<line x1="512.62" y1="284.4" x2="526.05" y2="273.96"/>
						<line x1="512.43" y1="283.73" x2="525.86" y2="273.28"/>
						<line x1="512.24" y1="283.05" x2="525.67" y2="272.61"/>
						<line x1="512.05" y1="282.37" x2="525.48" y2="271.93"/>
						<line x1="511.86" y1="281.69" x2="525.28" y2="271.25"/>
						<line x1="511.67" y1="281.02" x2="525.09" y2="270.57"/>
						<line x1="511.48" y1="280.34" x2="524.9" y2="269.9"/>
						<line x1="511.29" y1="279.66" x2="524.71" y2="269.22"/>
						<line x1="511.1" y1="278.98" x2="524.52" y2="268.54"/>
						<line x1="510.91" y1="278.31" x2="524.33" y2="267.86"/>
						<line x1="510.71" y1="277.63" x2="524.14" y2="267.19"/>
					</g>
				</g>
				<path d="M520.65,312.26c-0.08-0.07-0.33,0.07-0.5,0.27c-0.33,0.4-0.93,1.03-1.81,1.62c-0.92,0.62-1.27,0.58-1.4,0.47
					c-0.07-0.06-0.27,0.03-0.44,0.2l-5.55,5.54c-0.34,0.34-0.6,0.7-0.73,1l0,0c-0.12,0.29,0.13,0.32,0.48,0.06l9.62-7.13
					c0.38-0.28,0.67-0.69,0.63-0.9l-0.17-1.02c0-0.02-0.01-0.03-0.02-0.04L520.65,312.26z"/>
				<path d="M544.07,291.46c-0.15,0.02-0.41,0.22-0.51,0.41c-0.2,0.37-0.61,1-1.45,1.78c-0.87,0.81-1.38,1-1.63,1.02
					c-0.14,0.01-0.35,0.17-0.48,0.35l-4.06,5.72c-0.25,0.35-0.37,0.66-0.35,0.87l0,0c0.02,0.2,0.39,0.07,0.7-0.25l8.66-8.8
					c0.34-0.35,0.47-0.7,0.29-0.77l-0.9-0.36c-0.01-0.01-0.03-0.01-0.06-0.01L544.07,291.46z"/>
				<g>
					<g>
						<path d="M511.2,272.5c1.13,0.65,4.01-0.16,5.94-2.1c1.92-1.94,2.56-4.04,1.43-4.69c-1.13-0.65-3.61,0.39-5.53,2.33
							C511.12,269.98,510.07,271.85,511.2,272.5z"/>
						<path d="M517.81,272.5L517.81,272.5c1.11-0.9,2.37-1.8,2.21-2.37l-1.07-3.79l-4.01,3.23l1.12,3.97
							C516.2,274,516.89,273.23,517.81,272.5z"/>
						<ellipse transform="matrix(0.7332 -0.68 0.68 0.7332 -44.8023 422.7363)" cx="516.31" cy="268.46" rx="5.68" ry="2.1"/>
						<path d="M515.63,272.63L515.63,272.63c1.14-0.92,1.93-2.14,1.77-2.72l-0.43-1.53l-5.01,3.59l0.42,1.5
							C512.61,274.27,514.06,273.9,515.63,272.63z"/>
						<path d="M512.23,272.36l-0.75,1.48c-0.1,0.23,0.11,0.23,0.39,0.01l1.13-0.78L512.23,272.36z"/>
						<g>
							<defs>
								
									<ellipse id="SVGID_56_" transform="matrix(0.7332 -0.68 0.68 0.7332 -44.8023 422.7363)" cx="516.31" cy="268.46" rx="5.68" ry="2.1"/>
							</defs>
							<use xlink:href="#SVGID_56_"  style="overflow:visible;"/>
							<clipPath id="SVGID_8_">
								<use xlink:href="#SVGID_56_"  style="overflow:visible;"/>
							</clipPath>
						</g>
						<ellipse transform="matrix(0.7332 -0.68 0.68 0.7332 -44.9577 423.4238)" cx="517.11" cy="269" rx="1.56" ry="0.58"/>
						<path d="M512.83,269.85c0.38,1.33,3.44,1.3,6.05-0.79c2.6-2.1,3.56-4.46,3.18-5.8c-0.38-1.33-2.79-0.72-5.4,1.38
							C514.05,266.73,512.45,268.51,512.83,269.85z"/>
					</g>
					<path d="M520.35,262.91c0.25,0.89,1.85,0.48,3.58-0.92c1.73-1.39,2.93-3.24,2.68-4.12c-0.25-0.89-1.85-0.48-3.58,0.92
						C521.29,260.18,520.1,262.03,520.35,262.91z"/>
				</g>
				<path d="M519.99,270.42c0,0-1.68,5.38-4.58,7.14c-1.74,1.06,0.87-4.44,0.87-4.44L519.99,270.42z"/>
				<path d="M515.32,285.7l0.07,17.34c0,0,5.62-2.05,11.62-7.68c6-5.63,4.74-7.43,10.85-11.91c0,0-7.45-4.93-12.76-5.38
					L515.32,285.7z"/>
				<g>
					<path d="M526.7,268.52l5.62,1.67l0.08,0.03c0.29,0.09,0.34,0.39,0.19,0.81l-4.13,11.1l-2.8,1.55l2.92-10.43l0.27,0.83
						l-6.24-0.97L526.7,268.52z"/>
					<path d="M524.9,285.55c0.24,0.71,1.6,0.33,3.04-0.84c1.44-1.18,2.41-2.71,2.16-3.42c-0.24-0.71-1.6-0.33-3.04,0.84
						C525.63,283.31,524.66,284.84,524.9,285.55z"/>
					<path d="M529.76,267.48l-4.54,0.21c-1.29,0.09-2.49,0.9-3.67,2.27l0,0c-0.98,1.13-1.29,2.13-0.59,2.68l2.14,1.96L529.76,267.48
						z"/>
				</g>
				<path d="M520.31,262.63c0,0,1.71-0.52,1.74,0.62"/>
			</g>
			<path d="M515.78,272.51c0,0,1.09-1.03,1.44-1.72c0,0,0.37,0.51-1.3,2.22L515.78,272.51z"/>
		</g>
		<g class="st20">
			<g>
				<path d="M483.73,146.6c0.97-0.13,2.52-1.33,3.46-2.68c0.94-1.35,0.91-2.35-0.06-2.22c-0.97,0.13-2.52,1.33-3.46,2.68
					C482.73,145.74,482.76,146.73,483.73,146.6z"/>
				<polygon points="484.05,145.95 478.86,148.51 479.86,146.16 484.26,143.91 				"/>
			</g>
			<path d="M482.81,147.17l-8.67,4.89c-0.47,0.27-0.88,0.37-1.14,0.29l-6.77-1.99l3.46-4.05l6.36,1.87l7.94-4.48L482.81,147.17z"/>
			<g>
				<path d="M488.43,137.48l-6.72,7.77c-0.18,0.21-0.25,0.41-0.15,0.46l1.8,0.86c0.11,0.05,0.37-0.1,0.56-0.33l6.6-7.74
					c0.18-0.21,0.24-0.4,0.15-0.45l-1.68-0.9C488.88,137.11,488.62,137.25,488.43,137.48z"/>
				<path d="M488.28,138.23l-5.45,6.2c-0.13,0.15-0.18,0.29-0.12,0.33l1.2,0.78c0.07,0.05,0.26-0.06,0.41-0.23l5.45-6.39
					c0.13-0.15,0.17-0.29,0.1-0.32l-1.2-0.59C488.6,137.97,488.42,138.07,488.28,138.23z"/>
			</g>
			<path d="M476.03,146.62c0,0,1.99-2.61,1.99-3.29c0-0.68-2.06-1.18-2.06-1.18l-3.07-1L476.03,146.62z"/>
			<path d="M468.24,141.51c0,0-0.42,2.3-2.87,4.26c-5.73,4.56-7.11,9.27-2.66,7.63c4.44-1.63,10.02-8.15,9.23-11.02
				c-0.8-2.87-0.86-3.63-0.86-3.63L468.24,141.51z"/>
			<path d="M467.48,143.16c0,0,0.44,0.32,1.9-0.9"/>
			<polygon points="470.76,143.1 466.38,149.04 467.91,157.87 476.78,150.63 475.26,142.94 			"/>
			<path d="M477.31,158.82l-6.26,14.02l-14.93,23.6l-2.8,2.11c0,0,4.87-12.84,12.08-22.39l4.38-13.31L477.31,158.82z"/>
			<path d="M453.55,197.51c0.11-0.22,0.37-0.45,0.51-0.46c0.28-0.02,0.76-0.31,1.64-0.98c0.91-0.69,1.38-1.18,1.56-1.54
				c0.1-0.19,0.3-0.4,0.46-0.46l5.05-1.84c0.31-0.11,0.52-0.07,0.59,0.12l0,0c0.07,0.18-0.23,0.63-0.57,0.86l-9.37,6.4
				c-0.37,0.25-0.6,0.19-0.51-0.14l0.45-1.6c0.01-0.03,0.02-0.06,0.03-0.09L453.55,197.51z"/>
			<g>
				<path d="M475.93,157.06l6.47,5.08l5.02,9.67l-2.91,2.53c0,0-7.67-3.22-6.73-7.56l-10.08-0.27L475.93,157.06z"/>
				<path d="M483.95,174.65c-0.02-0.14,0.17-0.4,0.37-0.52c0.4-0.24,0.86-0.7,1.6-1.58c0.77-0.91,1.06-1.4,1.03-1.63
					c-0.02-0.12,0.12-0.34,0.3-0.48l5.92-4.63c0.36-0.28,0.71-0.45,0.97-0.47l0,0c0.25-0.02,0.18,0.32-0.13,0.66l-8.5,9.19
					c-0.33,0.36-0.73,0.54-0.86,0.4l-0.66-0.71c-0.01-0.01-0.02-0.03-0.02-0.05L483.95,174.65z"/>
			</g>
			<g>
				<path d="M477.28,132.43c0.13,1.65-3.61,6.35-5.77,8.07c-2.16,1.72-1.87,0.4-2-1.25c-0.13-1.65,1.52-4.38,3.68-6.1
					C475.34,131.43,477.15,130.78,477.28,132.43z"/>
				<path d="M472.01,143.22L472.01,143.22c-1.14,0.91-2.4,2.03-2.45,1.32l-0.37-4.69l4.11-3.27l0.38,4.91
					C473.72,142.08,472.95,142.48,472.01,143.22z"/>
				<path d="M476.36,134.15c0.12,1.53-1.78,4.35-4.25,6.32c-2.47,1.96-4.56,2.32-4.68,0.79c-0.12-1.53,1.78-4.35,4.25-6.32
					C474.14,132.98,476.24,132.63,476.36,134.15z"/>
				<path d="M473.73,140.12L473.73,140.12c-1.17,0.93-2.17,1.1-2.22,0.38l-0.15-1.89l4.99-4.46l0.14,1.85
					C476.58,137,475.34,138.84,473.73,140.12z"/>
				<path d="M476.27,134.87l1.04,0.11c0.15,0.03-0.02,0.36-0.3,0.58l-1.12,1.03L476.27,134.87z"/>
				<g>
					<defs>
						<path id="SVGID_58_" d="M476.36,134.15c0.12,1.53-1.78,4.35-4.25,6.32c-2.47,1.96-4.56,2.32-4.68,0.79
							c-0.12-1.53,1.78-4.35,4.25-6.32C474.14,132.98,476.24,132.63,476.36,134.15z"/>
					</defs>
					<use xlink:href="#SVGID_58_"  style="overflow:visible;"/>
					<clipPath id="SVGID_10_">
						<use xlink:href="#SVGID_58_"  style="overflow:visible;"/>
					</clipPath>
				</g>
				<path d="M472.67,138.36c0.03,0.42-0.49,1.2-1.17,1.74c-0.68,0.54-1.25,0.64-1.29,0.22c-0.03-0.42,0.49-1.2,1.17-1.74
					C472.06,138.04,472.64,137.94,472.67,138.36z"/>
				<path d="M475.02,133.69c0.13,1.65-2.27,5.88-4.94,8.01c-2.67,2.13-4.13,1.86-4.25,0.21c-0.13-1.65,1.93-4.71,4.6-6.84
					C473.09,132.95,474.89,132.04,475.02,133.69z"/>
			</g>
			<polygon points="469.94,144.73 474.3,142.82 473.34,141.31 			"/>
			<path d="M476.78,150.63l6.8,7.62c0,0-16.13,17.95-25.42,19.74l9.75-20.11L476.78,150.63z"/>
			<g>
				<path d="M466.39,165.87c-0.01,0.89,1.07,0.79,2.42-0.23c1.35-1.02,2.45-2.58,2.47-3.47c0.01-0.9-1.07-0.79-2.42,0.23
					C467.51,163.42,466.41,164.98,466.39,165.87z"/>
				<polygon points="467.07,165.22 465.06,163.32 467.5,160.84 469.29,162.34 				"/>
			</g>
			<path d="M466.06,165.31l-4.83-3.55c-0.22-0.16-0.23-0.54-0.01-1.04l4.43-10.59c0.43-1.01,1.62-2.24,2.66-2.75l0,0
				c1.04-0.51,1.53-0.1,1.09,0.91l-4.1,9.8l4.48,3.3L466.06,165.31z"/>
			<polyline points="469.36,144.99 474.3,142.82 473.83,141.46 			"/>
			<line x1="467.2" y1="153.59" x2="468.8" y2="149.74"/>
			<path d="M463.36,159.79c0,0,0.46-0.64,1.34-1.07"/>
			<path d="M473.58,140.24c0,0-0.9,0.63-1.78,0.68c0,0,0.16,0.81,1.84,0.15L473.58,140.24z"/>
		</g>
		<g class="st20">
			<g>
				<g>
					<path d="M580.62,222.51c-1.32,1.47-1.71,2.82-0.86,3.03c0.85,0.21,2.6-0.81,3.92-2.28c1.32-1.47,1.71-2.82,0.86-3.03
						C583.7,220.02,581.95,221.04,580.62,222.51z"/>
					<polygon points="581.26,222.38 585.07,216.39 587.53,215.73 584.42,220.74 					"/>
				</g>
				<g>
					<path d="M616.54,219.39c-0.09-0.05-0.32,0.08-0.46,0.27c-0.27,0.37-0.74,0.51-1.53,1.09c-0.82,0.6-1.21,1.02-1.35,0.94
						c-0.08-0.04-0.26,0.04-0.41,0.21l-5.36,5.74c-0.29,0.31-0.49,0.64-0.58,0.91l0,0c-0.08,0.25,0.18,0.26,0.48,0.01l9.16-7.41
						c0.34-0.27,0.56-0.64,0.5-0.81l-0.32-0.85c-0.01-0.01-0.01-0.02-0.03-0.03L616.54,219.39z"/>
					<polygon points="602.45,205.48 605.33,213.23 616.94,219.19 611.72,223.27 599.16,220.41 594.74,215.79 					"/>
					<path d="M587.37,242.61c-0.03-0.1-0.24-0.03-0.41,0.15c-0.34,0.35-0.59,0.3-1.35,0.69c-0.79,0.41-1.34,0.83-1.39,0.66
						c-0.03-0.09-0.19-0.05-0.35,0.09l-5.32,4.54c-0.32,0.28-0.6,0.6-0.78,0.91l0,0c-0.17,0.29-0.01,0.41,0.3,0.23l8.48-5.04
						c0.33-0.2,0.65-0.57,0.68-0.82l0.19-1.22c0-0.02,0-0.04,0-0.05L587.37,242.61z"/>
					<path d="M590.94,213.94l-5.38,15.17l-2.53,15.99l4.68-2.61l4.74-17.4c0,0,12.59-18.55,11.16-21.53L590.94,213.94z"/>
					<path d="M593.28,196.88l0.35-0.35c1.16-1.15,1.68-2.36,1.17-2.71l-3.42-2.3l-4.18,4.14l3.58,2.41
						C591.21,198.36,592.33,197.83,593.28,196.88z"/>
					<path d="M591.16,195.58c0,0,1.39,0.21-0.55,2.37l-0.62-0.42L591.16,195.58z"/>
					<path d="M584.09,198.74c1.11,0.75,4.05-0.66,6.56-3.14c2.51-2.48,3.64-5.1,2.53-5.85c-1.11-0.75-4.05,0.66-6.56,3.14
						C584.11,195.37,582.97,197.99,584.09,198.74z"/>
					<path d="M589.9,197.74L589.9,197.74c1.19-1.18,1.73-2.42,1.2-2.78l-1.93-1.3l-5.12,5.07l1.57,1.06
						C586.35,200.27,588.27,199.35,589.9,197.74z"/>
					<path d="M584.67,198.92l-0.34,1.42c-0.03,0.21,0.28,0.12,0.57-0.17l1.25-1.07L584.67,198.92z"/>
					<g>
						<defs>
							<path id="SVGID_60_" d="M584.09,198.74c1.11,0.75,4.05-0.66,6.56-3.14c2.51-2.48,3.64-5.1,2.53-5.85
								c-1.11-0.75-4.05,0.66-6.56,3.14C584.11,195.37,582.97,197.99,584.09,198.74z"/>
						</defs>
						<use xlink:href="#SVGID_60_"  style="overflow:visible;"/>
						<clipPath id="SVGID_12_">
							<use xlink:href="#SVGID_60_"  style="overflow:visible;"/>
						</clipPath>
					</g>
					<path d="M594.76,192.22l-5.72,7.44l1.26,0.47c0,0,0.99,9.86-2.08,17.43l17.55-13.06C605.78,204.5,605.45,190.72,594.76,192.22z
						"/>
					<path d="M595.61,195.39c0,0-2.94,1.71-4.56,5.55c-1.62,3.84-1.86,7.84-9.54,20.16l4.82-2.98c0,0,9.21-10.37,11.37-17.34
						C599.85,193.82,597.41,193.92,595.61,195.39z"/>
					<path d="M588.81,195.53c0,0-2.17,0.57-1.44-0.45c0.74-1.03,3.48-4.26,5.81-5.32c0,0,1.38-0.2,0.17,3.1l-2.74,1.81
						L588.81,195.53z"/>
					<path d="M588.81,195.53c0.31,0.21,1.11-0.18,1.8-0.86c0.69-0.68,1-1.4,0.7-1.61c-0.31-0.21-1.11,0.18-1.8,0.86
						C588.81,194.6,588.5,195.32,588.81,195.53z"/>
				</g>
			</g>
			<line x1="640.15" y1="176.78" x2="643.99" y2="172.15"/>
		</g>
	</g>
	<g class="st20">
		<path d="M261.87,307.03c0-0.02-0.01-0.03-0.02-0.04l-0.1-0.1c-0.06-0.07-0.27-0.01-0.46,0.11l0.09-0.72l1.26-0.49l3-12.27
			l9.75-11.86c0.15-0.1,0.31-0.21,0.46-0.31c1.48-1.04,2.8-2.16,3.89-3.27l1.2-1.23l7.35-7.4l-7.54,10.88
			c-0.86,0.41-1.72,1-2.34,1.64c-1.11,1.15-1.02,2.02,0.21,1.94c1.23-0.08,3.12-1.07,4.23-2.22c1.11-1.15,1.02-2.02-0.21-1.94
			c-0.28,0.02-0.59,0.09-0.91,0.19l8.07-7.67l1.11-3.94l3.88-1.37l0.23-4.4c0.03-0.14,0.01-0.25-0.03-0.35
			c0.17-0.43,0.18-0.8,0.01-1.07l0,0l-0.03-1.31l-0.11,0.02l1.27-1.28l0,0l0.76-0.73l2.82-0.7c0,0,6.43-4.63,4.41-6.62
			c-0.9-0.89-2.85-0.35-4.73,0.51c-0.41-0.82-2.86,0.02-4.45,1.79c-0.72,0.8-0.58,1.19-0.12,1.36c-0.3,0.24-0.58,0.5-0.84,0.75
			l-0.01,0l-0.06,0.06c0,0,0,0,0,0c0,0,0,0,0,0l-0.95,0.95l-1.7,1.03c-0.3,0.19-0.38,0.42-0.14,0.41l0.36,0.06l-0.29,0.29
			c-1.28,1.29-1.23,2.29,0.12,2.24c0.04,0,0.09-0.01,0.14-0.02l-0.81,0.81c0,0,0,0,0,0l0,0l0,0l-1.02,1.03
			c-0.5,0.26-1.01,0.54-1.51,0.87c-0.47,0.25-0.95,0.55-1.38,0.89l-6.74,4.86l0.36,0.29l-16.69,9.76c-0.49-0.09-1.26,0.05-2.18,0.47
			c-1.65,0.75-3.1,2.07-3.25,2.94c-0.15,0.87,1.07,0.96,2.72,0.21c1.65-0.75,3.1-2.07,3.25-2.94c0.03-0.2-0.01-0.35-0.11-0.46
			l10.88-4.53l1.49-1.13l-4.5,4.17l-0.71,0.57h0l-41.19,33.03l0.53,0.27l-0.8,0.6c0.1-0.13,0.07-0.22-0.08-0.2l-5.71,0.67
			c-0.35,0.04-0.79,0.2-1.23,0.45c-0.41,0.23-0.64,0.56-0.44,0.64l5.63,2.02c0.22,0.08,0.73-0.11,1.11-0.42l1.87-1.51
			c0.03-0.02,0.06-0.05,0.08-0.08l0.22-0.23c0.14-0.15,0.12-0.24-0.02-0.24l1.09-0.82l0.54,0.27l23.33-17.9l5.13-3.38l-1.77,2.19
			c-1.32,1.63-2.28,3.19-2.85,4.6l-0.52,10.56l1.26-0.49l-0.11,0.82c-0.09-0.03-0.28,0.02-0.47,0.14l-6.83,4.63
			c-0.41,0.28-0.75,0.6-0.93,0.89c-0.17,0.27,0.1,0.34,0.51,0.14l11.48-5.55c0.45-0.22,0.82-0.58,0.81-0.79L261.87,307.03z"/>
		<path d="M128.5,314.18l0.12-0.18c0.02-0.02,0.02-0.04,0.02-0.06l10.59-16.36l9.16-9.44c1.27-0.85,2.33-1.66,3.07-2.38l3.07-0.32
			c0,0,5.49-6.83,11.8-13.55c6.31-6.72,5.04-8.54,5.04-8.54l0.59-1.05l-0.55,0.1c0.02-0.03,0.05-0.07,0.07-0.1l1.33-2.1h0l0.47-0.69
			l3.15-1.36c0,0,0.2-0.19,0.48-0.5c0.66-0.18,1.32-0.43,1.5-0.75c0.23-0.4,0.14-0.7-0.18-0.91c0.51-0.77,0.9-1.6,0.78-2.23
			l0.11-0.13c0.13-0.15,0.17-0.28,0.09-0.34c-0.3-0.23-0.69-0.37-1.14-0.43c-0.17-0.05-0.34-0.1-0.56-0.13
			c-1.22-0.16-2.58,0.19-3.87,0.76c-0.47,0.14-0.87,0.28-1.14,0.38c-0.21,0.08-0.44,0.22-0.6,0.37l-0.4,0.38
			c-1.04,0.64-1.93,1.3-2.54,1.78c-1.11,0.28-2.02,0.61-2.51,0.93c-1.26,0.85,0.96,1.47,0.96,1.47l0.05-0.01l-0.56,0.89l-1.48,1.18
			c-0.26,0.22-0.2,0.38,0.1,0.29l0.5-0.08l-0.17,0.27c-0.76,1.2,0.01,1.78,1.7,1.29c0.05-0.02,0.11-0.04,0.17-0.06l-0.21,0.33
			l-0.12,0.19l-1.29,0.23l-0.71,1.74c-2.15,1.39-4.62,3.23-7.16,5.25l-0.11-1.66l-1.27,0.56l0.28-1.02
			c0.29-0.15,0.59-0.32,0.88-0.52c0.37-0.24,0.69-0.5,0.98-0.75l0.53-0.22c0.24-0.1,0.46-0.29,0.49-0.42l1.01-4.4
			c0.03-0.12-0.11-0.14-0.33-0.06l-3.83,1.51c-0.24,0.09-0.47,0.29-0.5,0.42l-0.52,2.02c-1.68,1.13-2.57,2.46-1.99,2.99
			c0.04,0.04,0.1,0.06,0.15,0.08l-0.43,1.81l-1.25,0.55l-1.34,5.1c-6.46,5.56-11.87,10.68-11.87,10.68l1.08-0.11l-16.58,10.89
			L104.1,312.8l-3.87,0.32c-0.28,0.02-0.64,0.15-1,0.34c-0.34,0.18-0.55,0.46-0.39,0.53l4.3,1.94c0.17,0.08,0.58-0.07,0.91-0.32
			l1.59-1.24c0.02-0.02,0.04-0.04,0.06-0.06l21.34-14.84c0,0,3.79-1.73,8.46-4.08l-4.15,5.52l-6.45,12.97l-4.07,1.19
			c-0.34,0.1-0.72,0.29-1.06,0.52c-0.32,0.22-0.4,0.46-0.16,0.46l6.67-0.06c0.26,0,0.69-0.22,0.95-0.48l1.24-1.27
			C128.47,314.22,128.49,314.2,128.5,314.18z"/>
		<path d="M334.64,301.78l-1.46-0.04c-0.02,0-0.05,0-0.08,0.01l-0.28,0.06c-0.22,0.04-0.5,0.24-0.56,0.39
			c-0.01,0.02-0.03,0.05-0.04,0.07l-0.24-0.83l0.92-0.49l-1.68-7.62l6.44-11.34c0.96-0.71,1.73-1.44,2.14-2.16l3.36-6.96l0.91,0.75
			l-0.6,7.86l1.02-0.52l0.04,1.76l0.01-0.01c-0.1,0.65,0.62,0.89,1.86,0.5c1.51-0.48,3.2-1.69,3.78-2.7
			c0.58-1.02-0.18-1.46-1.69-0.98c-0.25,0.08-0.51,0.19-0.77,0.3l-0.04-0.48l1.61-0.82l0.59-8.23l-4.58-3.86
			c-0.03-0.07-0.05-0.15-0.1-0.22c-0.52-0.78-1.32-0.86-2.47-0.6l0,0l0.14-0.86c0.24-0.03,0.42-0.07,0.42-0.07l0.41-0.57l2.28-0.51
			c0,0,6.39-4.45,4.69-6.56c-1.71-2.11-8.27,2.18-8.27,2.18c-0.09,0.22,0.03,0.37,0.25,0.46c-0.66,0.44-1.28,0.92-1.82,1.43h-0.01
			l-0.98,0.95l-1.74,1.02c-0.3,0.18-0.39,0.41-0.17,0.41l0.35,0.08l-0.29,0.28c-1.31,1.26-1.34,2.28-0.08,2.28
			c0.13,0,0.27-0.02,0.42-0.05l-0.02,0.37l-0.16,0.95c-2.5,1.39-4.77,3.3-5.77,5.01l-1.12,3.15l-9.77,4.76l0.02,0.57l-2.94,1.27
			l0,0.01c-1.23,0.48-2.55,1.39-3.2,2.27c-0.8,1.08-0.3,1.69,1.1,1.37c1.41-0.32,3.19-1.45,3.99-2.53c0.13-0.18,0.22-0.34,0.28-0.5
			l0.81-0.36l0.02,0.66l8.56-4.34l-0.36,1.03c0,0-10.7,6.7-20.38,13.8c-0.7,0.51-1.18,1.07-1.28,1.5l-2.74,10.47l1.04-0.22
			l-0.6,1.86c-0.01-0.12,0.01-0.23,0.07-0.32c0.1-0.14,0.02-0.22-0.18-0.16l-6.09,1.94c-0.4,0.12-0.85,0.34-1.25,0.62
			c-0.38,0.26-0.48,0.55-0.19,0.54l7.87-0.08c0.31,0,0.82-0.26,1.12-0.57l1.63-1.66c0.02-0.02,0.04-0.05,0.06-0.07l0.14-0.21
			c0.11-0.16-0.02-0.22-0.25-0.13l0.96-2.44l1.53-0.32l3.53-9.82c0.09-0.2,0.38-0.46,0.72-0.64l10.87-6.08l-2.12,8.21l2.76,8.06
			l1.15-0.61l0.56,1.41c-0.09,0.06-0.18,0.13-0.23,0.2l-3.38,4.71c-0.21,0.29-0.25,0.52-0.13,0.66c0.12,0.13,0.59-0.04,0.9-0.32
			l8.67-7.76C334.9,302.05,334.94,301.78,334.64,301.78z"/>
		<path d="M321.23,332.86l-2.69,1.09c-0.69,0.28-1.3,0.42-1.79,0.42h-23.21c-0.48,0-0.79-0.14-0.91-0.41l-0.47-1.1
			c-0.05-0.12-0.34-0.08-0.64,0.1c-0.3,0.18-0.5,0.41-0.45,0.53l0.47,1.1c0.15,0.36,0.57,0.55,1.2,0.55h1.79
			c-0.51,0.22-1.05,0.56-1.46,0.95c-0.68,0.66-0.7,1.19-0.04,1.19c0.66,0,1.75-0.53,2.43-1.19c0.4-0.39,0.57-0.73,0.51-0.95h17.57
			c-0.51,0.22-1.05,0.56-1.46,0.95c-0.68,0.66-0.7,1.19-0.04,1.19c0.66,0,1.75-0.53,2.43-1.19c0.4-0.39,0.57-0.73,0.51-0.95h0.97
			c0.64,0,1.46-0.19,2.37-0.56l2.69-1.09c0.3-0.12,0.59-0.36,0.65-0.53C321.73,332.78,321.53,332.74,321.23,332.86z"/>
		<path d="M196.58,360.45c-0.21-0.12-0.53-0.14-0.91-0.09l-0.11-0.98l1.11-0.57l0.02-5.03c1.13-1.14,2.29-2.32,2.34-2.39
			c0.07-0.1,2.05-1.66,3.45-2.77c0.87-0.69,1.42-1.41,1.47-1.92l0.12-1.29c1.2-1.69,1.26-2.29,1.13-2.5l1.56-1.5
			c0.03,0,0.06,0.01,0.1,0.01c1.14,0,3.02-0.92,4.22-2.06l0.45-0.07c0.21,0,0.55-0.21,0.62-0.38l0.32-0.9l0.29-0.28
			c0.56-0.19,1.32-0.59,2.34-1.33c2.67-1.93,1.38-2.09,0.46-2.04c0.75-2.11-2.38-1.04-4.03-0.36c-0.93,0.22-3.52,0.94-4.79,2.56
			c-1.34,1.7-1.25,1.36-2.88,2.09c-1.63,0.74-3.17,1.74-4.54,3.24h3.95l-1.17,1.13c-2.05,0.51-4.26,1.98-6.32,3.76
			c-0.75,0.44-1.51,0.86-2.27,1.26c-1.77,0.93-3.56,1.77-5.34,2.57c-0.89,0.4-1.78,0.79-2.66,1.16c-0.44,0.19-0.88,0.37-1.32,0.55
			l-0.66,0.27c-0.08,0.03-0.16,0.07-0.25,0.1l-0.12-0.32c0,0-12.51,5.49-10.68,10.59c0.91,2.53,4.21,1.7,7.32,0.22l-15.82,12.49
			l-18.12,11.71l0.11,0.34l-3.33,1.96c0.01-0.01,0.01-0.02,0.02-0.03c0.13-0.16,0.02-0.24-0.21-0.15l-0.3,0.11
			c-0.03,0.01-0.07,0.03-0.1,0.04l-2.06,1.05c-0.42,0.21-0.75,0.55-0.72,0.74l0.77,4.74c0.03,0.17,0.44,0.08,0.78-0.18
			c0.37-0.27,0.64-0.57,0.77-0.82l2.1-4.15c0.07-0.13-0.06-0.17-0.26-0.09c-0.05,0.02-0.1,0.03-0.15,0.05l3.14-1.85l0.11,0.34
			l20.74-12.28l3.19-2.14l-14.09,16.57h0.67l-2.08,2.12c0-0.01-0.01-0.01-0.01-0.02c-0.02-0.11-0.27-0.05-0.49,0.1l-0.29,0.2
			c-0.03,0.02-0.06,0.05-0.09,0.07l-1.62,1.42c-0.33,0.29-0.37,0.54-0.1,0.56l7.01,0.36c0.25,0.01,0.72-0.25,0.89-0.5
			c0.18-0.27,0.21-0.49,0.07-0.61l-2.19-1.99c-0.07-0.06-0.29,0-0.49,0.14c-0.04,0.03-0.09,0.06-0.14,0.09l1.9-1.95h0.51
			l31.75-32.76l0,2.5l0.62-0.32l0.05,0.87c-1.27,1-1.81,2.04-1.18,2.4c0.67,0.38,2.43-0.18,3.91-1.25
			C196.6,362,197.26,360.83,196.58,360.45z M184.06,352.75c0.45-0.18,0.89-0.37,1.34-0.56c0.9-0.38,1.8-0.77,2.7-1.17
			c1.81-0.81,3.63-1.67,5.46-2.62c0.36-0.18,0.71-0.38,1.07-0.57c-3.97,3.71-7.14,8.12-7.14,8.12c-0.84,0.6-1.59,1.2-2.27,1.77
			l-1.81-4.71L184.06,352.75z"/>
		<path d="M74.73,395.88l-4.11-0.41c-0.13-0.01-0.36,0.1-0.51,0.24c-0.15,0.14-0.37,0.31-0.67,0.49l12.43-14.58l2.66-4.27
			c0.97-0.31,1.58-0.55,1.58-0.55s2.41-4.13,4.42-6.2c2-2.07,4.48-5.09,4.48-5.09c3.87-3.46,6.7-6.18,8.78-8.32l7.28-5.82
			l-0.37-0.12l2.42-1.89l1.87-1c0.4-0.21,0.7-0.53,0.66-0.7l-0.12-0.57c0.03-0.07,0.05-0.14,0.07-0.21l0.29,0.02
			c0.12,0.05,0.42-0.1,0.55-0.26l0.6-0.88l0.3-0.23c0.42-0.08,1.06-0.33,2.01-0.89c1.23-0.71,1.67-1.19,1.74-1.5
			c1.43-0.45,2.49-0.93,2.75-1.37c0.26-0.43-0.71-0.57-2.25-0.5c0.42-1.1,0.45-2.39-2.32-1.71c-2.32,0.57-4.12,1.86-5.27,2.89
			c-2.05,0.51-3.79,1.14-4.47,1.78c-0.5,0.48-0.04,0.7,0.96,0.73c-0.89,0.4-1.81,0.95-2.79,1.74c-0.18,0.14-0.24,0.28-0.14,0.32
			l2.15,0.79l-1.58,1.21c-0.39,0.04-0.75,0.09-1.1,0.15c-0.24-0.09-0.57-0.12-0.97-0.07c-0.29,0.04-0.66,0.13-1.02,0.27
			c-0.36,0.14-0.73,0.31-1.09,0.5c-0.72,0.38-1.39,0.8-2.03,1.23c-1.28,0.86-2.46,1.75-3.61,2.64c-2.19,1.69-4.29,3.38-6.4,5.07
			l-0.88,0.04c0,0-1.45,0.96-2.29,1.92l-5.85,4.99c-0.58,0.51-0.63,0.95-0.1,0.95h2.99c-5.44,3.39-14.47,8.9-14.47,8.9
			c0.25,1.14,0.88,1.9,1.75,2.4l-3.54,3.22c-4.39,1.09-11.6,6.35-11.6,6.35l-10.94,6.86c-0.05-0.04-0.18-0.03-0.35,0.06l-0.3,0.16
			c-0.03,0.02-0.07,0.04-0.1,0.06l-1.87,1.27c-0.38,0.26-0.57,0.56-0.41,0.66l4.05,2.56c0.15,0.09,0.6-0.09,0.86-0.35
			c0.28-0.28,0.43-0.54,0.43-0.73l-0.09-3.11c0-0.1-0.18-0.08-0.38,0.03c-0.13,0.07-0.29,0.14-0.45,0.2l21.89-12.14l6.81-4.33
			c0.38-0.01,0.76-0.03,1.15-0.07l-1.44,5.03c-4.3,2.64-8.81,11.19-9.75,13.04c-0.05-0.02-0.11-0.03-0.14-0.05
			c-0.1-0.05-0.37,0.06-0.54,0.22l-0.22,0.21c-0.02,0.02-0.05,0.05-0.06,0.07l-1.05,1.34c-0.21,0.27-0.1,0.43,0.26,0.35l9.04-2.11
			c0.33-0.08,0.73-0.38,0.77-0.58C75.1,396.04,74.98,395.91,74.73,395.88z M110.02,349.62c0.03,0.11,0.1,0.2,0.2,0.27l-1.03,0.82
			c0.27-0.5,0.3-0.69,0.3-0.69L110.02,349.62z M98.8,353.92c1.02-0.8,2.07-1.6,3.14-2.35c-0.51,0.46-0.9,0.91-1.03,1.26l-0.06,0.15
			l-5.92,5.72l-2.18,0.09C94.76,357.17,96.76,355.53,98.8,353.92z M68.22,396.7l0.61-0.2c-0.15,0.06-0.3,0.12-0.47,0.17
			C68.3,396.69,68.27,396.69,68.22,396.7z"/>
	</g>
	<g>
		<g>
			<g>
				<g>
					<polygon class="st24" points="239.28,249.61 235.09,263.18 234.87,263.88 234.36,264.24 223.61,271.55 221.79,269.06 
						232.02,261.04 231.29,262.1 234.87,248.35 					"/>
				</g>
				<path class="st24" d="M221.68,269.07c-1.17,1.01-1.3,2.78-0.28,3.96c1.01,1.17,2.79,1.3,3.96,0.28c1.17-1.01,1.3-2.78,0.28-3.96
					C224.62,268.19,222.85,268.06,221.68,269.07z"/>
				<path class="st25" d="M238.48,257.78l1.21-8.21c0.33-1.51-0.62-3-2.12-3.34l0,0c-1.51-0.33-3,0.62-3.33,2.12l-2.29,6.55
					L238.48,257.78z"/>
			</g>
			<polygon class="st24" points="258.4,304.5 261.3,307.66 258.25,309.87 255.42,306.75 			"/>
			<polygon class="st24" points="229,311.57 227.8,315.68 224.33,314.22 225.53,310.18 			"/>
			<path class="st26" d="M236.34,277.18l2.51,10.99c0.5,2.2,1.38,4.3,2.59,6.2l14.03,14.23l5.19-3.38l-13.07-16.53l-4.17-19.5
				L236.34,277.18z"/>
			<path class="st27" d="M261.02,306.71c-0.22-0.11-0.48,0.02-0.52,0.26c-0.08,0.47-0.33,1.18-1.12,1.78
				c-0.81,0.63-1.45,0.5-1.81,0.32c-0.19-0.1-0.42-0.02-0.51,0.17l-2.73,6.24c-0.17,0.38-0.17,0.81-0.02,1.19l0,0
				c0.14,0.36,0.61,0.46,0.89,0.19l7.71-7.48c0.3-0.29,0.3-0.78-0.01-1.07l-1.52-1.41c-0.03-0.02-0.05-0.04-0.08-0.06L261.02,306.71
				z"/>
			<path class="st28" d="M233.38,266.74l11.58-0.5l-0.75-17.45c-0.11-2.51-2.23-4.45-4.73-4.34l-0.27,0.01
				c-3.74,0.16-5.32,3.27-5.16,7L233.38,266.74z"/>
			<path class="st29" d="M233.38,266.74l-9.57,45.24l5.72,1.89l6.46-24.11l7.39-15.33c0.36-0.68,0.71-1.4,1-2.14
				c0.55-1.4,0.76-2.9,0.68-4.4l-0.1-1.65L233.38,266.74z"/>
			<path class="st27" d="M228.47,314.94c-0.02-0.24-0.26-0.4-0.49-0.31c-0.44,0.17-1.18,0.33-2.1-0.03
				c-0.96-0.37-1.18-0.98-1.21-1.38c-0.02-0.21-0.2-0.37-0.41-0.34l-6.75,0.9c-0.41,0.05-0.78,0.27-1.03,0.6l0,0
				c-0.24,0.31-0.08,0.76,0.3,0.86l10.39,2.72c0.41,0.11,0.82-0.15,0.91-0.56l0.42-2.03c0.01-0.03,0.01-0.07,0.01-0.1L228.47,314.94
				z"/>
			<g>
				<g>
					<polygon class="st24" points="243.77,247.35 252.07,258.88 252.5,259.48 252.47,260.11 251.81,273.09 248.73,273.04 
						248.51,260.04 248.91,261.26 240.11,250.11 					"/>
				</g>
				<path class="st24" d="M248.68,273.13c0.1,1.55,1.44,2.71,2.98,2.61c1.55-0.1,2.71-1.44,2.61-2.98c-0.1-1.55-1.44-2.71-2.98-2.61
					C249.74,270.25,248.57,271.59,248.68,273.13z"/>
				<path class="st25" d="M249.81,252.92l-5.82-5.92c-1-1.18-2.76-1.32-3.94-0.32l0,0c-1.18,1-1.32,2.76-0.32,3.94l3.84,5.78
					L249.81,252.92z"/>
			</g>
			<path class="st24" d="M237.56,247.02l0.37-0.02c1.23-0.05,2.19-1.09,2.14-2.33l-0.35-8.19l-4.44,0.19l0.37,8.58
				C235.69,246.28,236.55,247.07,237.56,247.02z"/>
			<path class="st30" d="M237.34,241.54c0,0,0.36,2.25-1.73,3.06l-0.06-1.5L237.34,241.54z"/>
			<path class="st24" d="M231.97,236.82c0.11,2.67,2.37,4.73,5.04,4.62c2.67-0.11,4.73-2.37,4.62-5.03
				c-0.11-2.67-2.37-4.73-5.04-4.62C233.92,231.9,231.85,234.16,231.97,236.82z"/>
			<path class="st24" d="M235.41,243.53L235.41,243.53c1.27-0.05,2.25-1.12,2.19-2.39l-0.2-4.62l-5.44,0.23l0.16,3.77
				C232.2,242.25,233.67,243.6,235.41,243.53z"/>
			<path class="st24" d="M232.15,237.9l-0.99,1.6c-0.14,0.26,0.07,0.56,0.38,0.55l1.23,0.18L232.15,237.9z"/>
			<g>
				<defs>
					<path id="SVGID_62_" d="M231.97,236.82c0.11,2.67,2.37,4.73,5.04,4.62c2.67-0.11,4.73-2.37,4.62-5.03
						c-0.11-2.67-2.37-4.73-5.04-4.62C233.92,231.9,231.85,234.16,231.97,236.82z"/>
				</defs>
				<clipPath id="SVGID_14_">
					<use xlink:href="#SVGID_62_"  style="overflow:visible;"/>
				</clipPath>
				<path style="clip-path:url(#SVGID_14_);fill:#121C21;" d="M236.41,238.74c0,0-1.6-0.58-0.8-3.08c0,0-3.45,0.54-4.24-0.62
					c0,0,2.62-6.92,8.11-4.24c5.5,2.68,3.29,8.92,3.29,8.92l-4.38,1.46L236.41,238.74z"/>
			</g>
			<path class="st24" d="M236.14,238.74c0.03,0.73,0.65,1.3,1.38,1.27c0.73-0.03,1.3-0.65,1.27-1.38c-0.03-0.73-0.65-1.3-1.38-1.27
				C236.68,237.39,236.11,238.01,236.14,238.74z"/>
			<path class="st32" d="M239.95,239.33l-0.01,2.31c0,0-2.47,0.67-2.57-1.62l1.49,0.21L239.95,239.33z"/>
			<polygon class="st28" points="241.99,245.09 240.12,243.32 235.61,244.6 235.72,247.1 238.96,248.39 			"/>
			<polygon class="st33" points="233.21,267.51 244.99,267 244.95,266.25 233.38,266.74 			"/>
			<path class="st32" d="M235.6,235.66c0,0-4.89,1.23-5.29-1.76c-0.33-2.39,1.82-3.51,3.51-2.4c1.14,0.75,1.57,0.48,2.37,0.33"/>
		</g>
		<g>
			<polygon class="st34" points="109.37,240.02 118.85,238.91 119.94,237.89 119.61,237.08 116.91,236.38 110.81,236.44 
				107.98,237.46 107.48,238.09 			"/>
			<path class="st27" d="M134.06,314.32c-0.07-0.19-0.3-0.26-0.46-0.14c-0.31,0.24-0.87,0.52-1.69,0.43
				c-0.85-0.09-1.15-0.53-1.27-0.84c-0.06-0.17-0.24-0.25-0.4-0.18l-5.2,2.19c-0.32,0.13-0.57,0.39-0.69,0.7l0,0
				c-0.12,0.3,0.1,0.62,0.42,0.62l8.89-0.09c0.35,0,0.63-0.3,0.6-0.65l-0.11-1.71c0-0.03-0.01-0.06-0.02-0.08L134.06,314.32z"/>
			<polygon class="st35" points="124.49,277.44 125.44,292.21 134.17,314.65 129.3,314.96 119.47,296.7 115.6,283.11 			"/>
			<path class="st27" d="M103.61,314.48c-0.01-0.2-0.2-0.34-0.39-0.27c-0.37,0.13-0.99,0.23-1.74-0.1
				c-0.78-0.34-0.94-0.85-0.95-1.19c-0.01-0.18-0.15-0.31-0.33-0.3l-5.61,0.51c-0.34,0.03-0.66,0.2-0.87,0.46l0,0
				c-0.21,0.25-0.09,0.62,0.21,0.72l8.5,2.62c0.33,0.1,0.69-0.1,0.77-0.44l0.42-1.66c0.01-0.03,0.01-0.06,0.01-0.08L103.61,314.48z"
				/>
			<path class="st24" d="M118.11,247.76l0.35-0.14c1.14-0.46,1.7-1.76,1.24-2.9l-3.06-7.6l-4.12,1.66l3.21,7.96
				C116.1,247.68,117.17,248.14,118.11,247.76z"/>
			<path class="st30" d="M116.07,242.66c0,0,1.09,2-0.61,3.46l-0.56-1.39L116.07,242.66z"/>
			<path class="st24" d="M109.44,240.02c1,2.47,3.81,3.67,6.28,2.67c2.47-1,3.67-3.81,2.67-6.28c-1-2.47-3.81-3.67-6.28-2.67
				C109.64,234.73,108.44,237.54,109.44,240.02z"/>
			<path class="st24" d="M114.91,245.18L114.91,245.18c1.17-0.47,1.74-1.81,1.27-2.98l-1.73-4.29l-5.04,2.03l1.41,3.49
				C111.47,245.05,113.3,245.83,114.91,245.18z"/>
			<path class="st24" d="M109.97,240.96l-0.4,1.83c-0.04,0.29,0.25,0.51,0.54,0.39l1.22-0.24L109.97,240.96z"/>
			<g>
				<defs>
					<path id="SVGID_64_" d="M109.44,240.02c1,2.47,3.81,3.67,6.28,2.67c2.47-1,3.67-3.81,2.67-6.28c-1-2.47-3.81-3.67-6.28-2.67
						C109.64,234.73,108.44,237.54,109.44,240.02z"/>
				</defs>
				<clipPath id="SVGID_15_">
					<use xlink:href="#SVGID_64_"  style="overflow:visible;"/>
				</clipPath>
				<path style="clip-path:url(#SVGID_15_);fill:#121C21;" d="M114.26,240.34c0,0-2.02-0.83-2.11-3.45c0,0-3.06,1.66-4.2,0.83
					c0,0,0.49-6.58,6.56-5.88c6.07,0.69,6.07,7.3,6.07,7.3l-3.64,2.84L114.26,240.34z"/>
			</g>
			<path class="st24" d="M114.01,240.43c0.27,0.68,1.05,1.01,1.73,0.73c0.68-0.27,1.01-1.05,0.73-1.73
				c-0.27-0.68-1.05-1.01-1.73-0.73C114.06,238.97,113.73,239.75,114.01,240.43z"/>
			<path class="st32" d="M117.8,239.71l0.76,2.18c0,0-2.1,1.45-2.96-0.67l1.47-0.3L117.8,239.71z"/>
			<path class="st37" d="M112.61,276.41l-7.85,16.11l-5.6,20.88l4.32,1.68l8.17-20.32c0,0,14.41-12.49,13.77-18.89L112.61,276.41z"
				/>
			<g>
				<path class="st37" d="M108.95,237.84l0.1-3.97c0-0.21,0.11-0.4,0.29-0.5c1.01-0.59,4.54-2.37,8.22-0.78
					c0.19,0.08,0.31,0.26,0.35,0.45l0.56,3.45L108.95,237.84z"/>
				<path class="st35" d="M108.92,237.23l0.06-1.75c0,0,4.73-1.43,9.32-0.68l0.26,1.86L108.92,237.23z"/>
				<path class="st37" d="M121.51,237.45c-1.51-3.36-14.58-1.46-15.48,0.58c-0.51,1.15,3.35,1.98,3.35,1.98s-0.95-1.1,0.2-1.55
					c1.15-0.45,6.99-1.86,9.16-0.52c0,0,0.53,0.43,0.12,0.96C118.85,238.91,121.93,238.39,121.51,237.45z"/>
			</g>
			<g>
				<path class="st24" d="M105.04,253.46c-1.53-0.72-2.18-2.54-1.47-4.07c0.72-1.53,2.54-2.18,4.07-1.47
					c1.53,0.72,2.18,2.54,1.47,4.07C108.39,253.53,106.57,254.18,105.04,253.46z"/>
				<polygon class="st24" points="104.71,252.76 109.05,258.2 111.5,256.44 107.95,251.79 				"/>
				<polygon class="st38" points="115.07,257.36 110.62,253.3 106.4,256.76 113.39,265.8 				"/>
				<path class="st39" d="M121,246.12c0,0,4.25,2.46,5.12,11.5c0.87,9.05,3,18.24,3,18.24l-18.51,2.14c0,0,0.45-20.98,4.79-29.53
					l-1.48-2.35l6.41-1.41L121,246.12z"/>
				<g>
					<path class="st32" d="M101.44,246.72l4.72,6.05c0.13,0.16,0.36,0.2,0.53,0.08l3.11-2.16c0.19-0.13,0.22-0.39,0.08-0.57
						l-4.78-5.93c-0.13-0.16-0.35-0.19-0.52-0.08l-3.05,2.04C101.34,246.28,101.3,246.54,101.44,246.72z"/>
					<path class="st10" d="M102.4,246.74l3.67,4.93c0.09,0.12,0.25,0.15,0.37,0.07l2.37-1.48c0.14-0.09,0.17-0.28,0.07-0.41
						l-3.95-4.9c-0.09-0.11-0.25-0.14-0.37-0.05l-2.09,1.45C102.34,246.44,102.31,246.62,102.4,246.74z"/>
				</g>
			</g>
			<g>
				<path class="st24" d="M113.3,276.46c-1.48,0.82-2.01,2.68-1.2,4.15c0.82,1.48,2.68,2.01,4.15,1.2c1.48-0.82,2.01-2.68,1.2-4.15
					C116.63,276.18,114.77,275.64,113.3,276.46z"/>
				<polygon class="st24" points="113.01,277.18 116.99,271.46 119.55,273.06 116.31,277.94 				"/>
			</g>
			<path class="st38" d="M118.74,249.25c0,0-2.81,0.53-2.33,5.12c0.49,4.59,2.05,10.25,2.05,10.25l-4.55,9.29l4.55,3.1
				c0,0,6.77-9.18,6.98-12.38C125.66,261.41,125.07,247.43,118.74,249.25z"/>
		</g>
		<g>
			<g>
				<g>
					<polygon class="st40" points="328.41,300.11 331.75,302.64 330.08,305.68 325.94,302.8 					"/>
					<path class="st27" d="M330.83,301.2c-0.23,0.06-0.34,0.32-0.21,0.52c0.24,0.39,0.51,1.08,0.33,2.03
						c-0.19,0.98-0.74,1.3-1.13,1.4c-0.2,0.05-0.32,0.25-0.26,0.45l2.01,6.34c0.12,0.39,0.39,0.71,0.75,0.89l0,0
						c0.34,0.17,0.74-0.05,0.77-0.43l0.85-10.45c0.03-0.41-0.28-0.77-0.7-0.78l-2.03-0.06c-0.03,0-0.07,0-0.1,0.01L330.83,301.2z"/>
				</g>
				<polygon class="st41" points="308.63,272.2 316.85,289.78 329.75,300.04 326.16,304.25 311.2,293.4 296.14,274.02 				"/>
				<path class="st40" d="M285.05,274.46c-1.45,0.43-2.28,1.95-1.85,3.4c0.43,1.45,1.95,2.28,3.4,1.85c1.45-0.43,2.28-1.95,1.85-3.4
					C288.02,274.86,286.5,274.03,285.05,274.46z"/>
				<polygon class="st40" points="284.32,274.79 289.28,270.92 291.08,273.23 286.99,276.58 				"/>
				<polygon class="st42" points="289.68,276.05 299.68,265.38 296.56,261.65 285.7,272.32 				"/>
				<path class="st40" d="M319.56,274.84c0.64,1.37,2.27,1.96,3.64,1.32c1.37-0.64,1.96-2.27,1.32-3.64
					c-0.64-1.37-2.27-1.96-3.64-1.32C319.51,271.84,318.92,273.47,319.56,274.84z"/>
				<polygon class="st40" points="319.99,275.5 315.43,271.18 317.44,269.06 321.37,272.6 				"/>
				<path class="st42" d="M296.1,271.6h13.47l-7.17-12.99c-1.77-2.39-2.43-4.11-4.47-5.31c-2.22-1.31-3.52-1.16-5.03-0.48
					l-0.24,0.11c-3.33,1.5-4.82,5.41-3.32,8.75L296.1,271.6z"/>
				<polygon class="st40" points="303.33,304.47 306.31,309.11 302.85,309.63 300.17,305.87 				"/>
				<path class="st27" d="M306.34,308.52c-0.08-0.22-0.35-0.31-0.54-0.17c-0.37,0.28-1.11,1-2.07,0.9c-1-0.1-1.91-0.81-2.04-1.19
					c-0.07-0.2-0.28-0.3-0.47-0.22l-5.5,2.61c-0.37,0.16-0.67,0.46-0.82,0.83l0,0c-0.14,0.35,0.12,0.74,0.5,0.73l10.49-0.11
					c0.41,0,0.74-0.35,0.71-0.77l-0.13-2.24c0-0.03-0.01-0.07-0.02-0.1L306.34,308.52z"/>
				<path class="st42" d="M316.83,273.83l3.74-3.98l-10.68-11.08l-12.52-5.63c-1.33-0.72-2.98-0.22-3.7,1.11l0,0
					c-0.72,1.33-0.22,2.98,1.11,3.7l11.89,5.3L316.83,273.83z"/>
				<path class="st40" d="M293.5,256.07l0.27-0.24c0.91-0.79,1.01-2.17,0.22-3.08l-5.25-6.04l-3.28,2.85l5.5,6.33
					C291.61,256.64,292.75,256.72,293.5,256.07z"/>
				<path class="st43" d="M290.01,250.89c0,0,0.52,1.59-0.76,3l-1.07-1.11L290.01,250.89z"/>
				<path class="st40" d="M284.94,246.51c0,2.61,2.11,4.72,4.72,4.72c2.61,0,4.72-2.11,4.72-4.72c0-2.61-2.11-4.72-4.72-4.72
					C287.06,241.8,284.94,243.91,284.94,246.51z"/>
				<path class="st40" d="M288.02,253.2L288.02,253.2c1.24,0,2.24-1,2.24-2.24v-4.52h-5.32v3.68
					C284.94,251.82,286.32,253.2,288.02,253.2z"/>
				<path class="st40" d="M285.04,247.57l-1.03,1.52c-0.15,0.25,0.04,0.55,0.34,0.55l1.19,0.23L285.04,247.57z"/>
				<g>
					<defs>
						<path id="SVGID_66_" d="M284.94,246.51c0,2.61,2.11,4.72,4.72,4.72c2.61,0,4.72-2.11,4.72-4.72c0-2.61-2.11-4.72-4.72-4.72
							C287.06,241.8,284.94,243.91,284.94,246.51z"/>
					</defs>
					<use xlink:href="#SVGID_66_"  style="overflow:visible;fill:#985126;"/>
					<clipPath id="SVGID_17_">
						<use xlink:href="#SVGID_66_"  style="overflow:visible;"/>
					</clipPath>
					<path style="clip-path:url(#SVGID_17_);fill:#121C21;" d="M289.2,248.57c0,0-1.53-1.49-0.66-3.9c0,0-3.39,0.39-4.11-0.78
						c0,0,2.84-5.78,8.09-2.94c5.25,2.85,2.84,8.84,2.84,8.84l-4.33,1.24L289.2,248.57z"/>
				</g>
				<path class="st45" d="M288.94,248.56c0,0.72,0.58,1.3,1.3,1.3c0.72,0,1.3-0.58,1.3-1.3c0-0.72-0.58-1.3-1.3-1.3
					C289.52,247.26,288.94,247.84,288.94,248.56z"/>
				<path class="st32" d="M292.63,249.29l0.59,1.94c0,0-3.14,0.86-3.14-1.38l1.45,0.26L292.63,249.29z"/>
				<path class="st42" d="M293.75,252.48c0,0-2.67,2.24-3.22,6.33l6.16-3.9L293.75,252.48z"/>
				<path class="st46" d="M296.1,271.6c0,0-5.07,9.02-8.2,18.58c-0.23,0.69-0.1,1.44,0.36,2.02l10.9,14.1l6.16-1.67l-8.95-13.23
					c-0.16-0.28-0.13-0.62,0.08-0.86l7.08-9.42c0,0,8.16-4.97,6.04-9.52H296.1z"/>
				<g>
					<path class="st47" d="M290.84,315.06c0,0.89-0.72,1.61-1.61,1.61c-0.89,0-1.61-0.72-1.61-1.61c0-0.89,0.72-1.61,1.61-1.61
						C290.12,313.45,290.84,314.17,290.84,315.06z"/>
					<path class="st47" d="M316.44,315.06c0,0.89-0.72,1.61-1.61,1.61c-0.89,0-1.61-0.72-1.61-1.61c0-0.89,0.72-1.61,1.61-1.61
						C315.72,313.45,316.44,314.17,316.44,315.06z"/>
					<path class="st33" d="M317.11,313.78h-31.26c-0.85,0-1.68-0.25-2.38-0.74l-2.17-1.48c-0.24-0.16-0.3-0.48-0.14-0.72
						c0.16-0.24,0.48-0.3,0.72-0.14l2.17,1.48c0.53,0.36,1.15,0.56,1.8,0.56h31.26c0.65,0,1.28-0.2,1.82-0.57l2.1-1.46
						c0.23-0.16,0.56-0.11,0.72,0.13c0.16,0.23,0.11,0.56-0.13,0.72l-2.1,1.46C318.81,313.52,317.97,313.78,317.11,313.78z"/>
				</g>
			</g>
			<line class="st48" x1="304.4" y1="262.23" x2="297.85" y2="259.31"/>
			<path class="st48" d="M306.96,262.23c0,0,0.17-0.81,1.16-1.33"/>
			<path class="st48" d="M290.23,255.68l0.4,2.54l0.62-2.06c0,0,0.75-2.32,2.51-3.67"/>
			<line class="st48" x1="315.83" y1="272.63" x2="319.39" y2="268.85"/>
			<line class="st48" x1="287.51" y1="270.92" x2="291.08" y2="274.14"/>
		</g>
		<g>
			<g>
				<g>
					<polygon class="st24" points="164.82,385.49 161.87,389.98 158.93,388.53 162.26,383.56 					"/>
					<path class="st49" d="M159.27,387.02c0.19-0.11,0.44-0.01,0.5,0.2c0.1,0.43,0.39,1.07,1.15,1.57c0.8,0.53,1.38,0.36,1.7,0.17
						c0.17-0.1,0.39-0.05,0.48,0.12l2.95,5.59c0.18,0.34,0.22,0.74,0.1,1.1l0,0c-0.11,0.34-0.53,0.47-0.81,0.24l-7.65-6.39
						c-0.3-0.25-0.33-0.7-0.06-0.99l1.31-1.41c0.02-0.02,0.05-0.04,0.07-0.06L159.27,387.02z"/>
					<polygon class="st26" points="173.86,347.25 168.98,368.39 160.92,384.16 164.75,387 175.56,370.46 179.31,362.21 					"/>
					<polygon class="st24" points="185.04,388.3 185.37,393.66 182.16,394.28 181.82,388.3 					"/>
					<path class="st50" d="M178.3,324.1c0,0,1.22-0.2,2.44,3.51l1.65,1.74c0.65,0.69,0.92,1.66,0.7,2.58
						c-0.35,1.49-0.83,3.61-0.78,3.74c0.07,0.2,0.31,6.14,0.31,6.14h-9.51c0,0-4.82-15.21,1.68-17.4L178.3,324.1z"/>
					<g>
						<path class="st51" d="M180.05,312.84c0,0,4.26-0.94,3,2.65c-1.33,3.79-4.27,1.01-4.27,1.01L180.05,312.84z"/>
						<path class="st24" d="M177.13,324.79L177.13,324.79c-1.11,0-2.34-0.38-2.34-0.38v-7.91h3.99v8.45
							C178.78,325.86,178.04,324.79,177.13,324.79z"/>
						<path class="st24" d="M181.75,316.5c0,2.4-1.94,4.34-4.34,4.34c-2.4,0-4.34-1.94-4.34-4.34c0-2.4,1.94-4.34,4.34-4.34
							C179.81,312.16,181.75,314.11,181.75,316.5z"/>
						<path class="st24" d="M178.92,322.24L178.92,322.24c-1.14,0-2.06-0.92-2.06-2.06v-2.97l4.89-0.71v2.91
							C181.75,320.97,180.49,322.24,178.92,322.24z"/>
						<path class="st24" d="M181.63,317.47l0.95,1.4c0.13,0.23-0.04,0.51-0.32,0.51l-1.1,0.21L181.63,317.47z"/>
						<g>
							<defs>
								<path id="SVGID_68_" d="M181.75,316.5c0,2.4-1.94,4.34-4.34,4.34c-2.4,0-4.34-1.94-4.34-4.34c0-2.4,1.94-4.34,4.34-4.34
									C179.81,312.16,181.75,314.11,181.75,316.5z"/>
							</defs>
							<clipPath id="SVGID_19_">
								<use xlink:href="#SVGID_68_"  style="overflow:visible;"/>
							</clipPath>
						</g>
						<path class="st52" d="M177.65,317.95c0,0,4.66-2.94,3.25-5.11c-2.59-4-6.7,0-6.7,0L177.65,317.95z"/>
						<path class="st52" d="M175.26,312.16c0,0-3.92,0.85-3.25,3.54c0.57,2.29,0.21,1.83-0.95,2.82c-1.16,0.99-1.84,2.34-1.59,4.37
							h6.99c0,0,2.85-1.47,0.33-4.37c0,0-0.13-2.25,1.52-2.56L175.26,312.16z"/>
						<path class="st24" d="M177.65,317.95c0,0.66-0.53,1.19-1.19,1.19c-0.66,0-1.19-0.53-1.19-1.19c0-0.66,0.53-1.19,1.19-1.19
							C177.11,316.75,177.65,317.29,177.65,317.95z"/>
					</g>
					<path class="st24" d="M177.65,323.23c0,0,1.36,1.5,2.43,4.36c0,0-2.05-2.24-5.29-3.18L177.65,323.23z"/>
					<path class="st29" d="M182.62,341.81l3.2,48.08H181l-6.85-36.98c0,0-3.18-5.18-1.05-11.1H182.62z"/>
					<path class="st49" d="M181.52,392.86c0.08-0.21,0.34-0.28,0.52-0.14c0.34,0.28,0.95,0.62,1.87,0.56
						c0.95-0.06,1.32-0.54,1.46-0.89c0.07-0.18,0.28-0.27,0.46-0.19l5.72,2.68c0.35,0.16,0.62,0.46,0.75,0.82l0,0
						c0.12,0.34-0.14,0.69-0.5,0.68l-9.95-0.49c-0.39-0.02-0.69-0.36-0.65-0.75l0.2-1.92c0-0.03,0.01-0.06,0.02-0.09L181.52,392.86z
						"/>
				</g>
				<path class="st53" d="M174.92,346.82l-0.03,0.05l-0.02,0.03l-0.03,0.04c0.01-0.07,0.03,0.15-0.44,0.16
					c-0.65-0.81-0.18-0.3-0.31-0.51l0.01-0.03l0.01-0.04l0.02-0.05l0.06-0.16l0.12-0.3l0.23-0.59l0.45-1.18
					c0.29-0.79,0.57-1.58,0.83-2.37c0.52-1.59,0.97-3.21,1.33-4.84c0.36-1.63,0.62-3.28,0.68-4.93c0.03-0.82,0.01-1.65-0.1-2.46
					c-0.1-0.8-0.31-1.62-0.62-2.3c-0.16-0.31-0.39-0.52-0.73-0.71c-0.32-0.18-0.67-0.29-1.01-0.29c-0.69-0.01-1.31,0.47-1.77,1.1
					c-0.23,0.31-0.43,0.66-0.61,1.03c-0.2,0.39-0.41,0.77-0.65,1.14c-0.47,0.73-1.01,1.41-1.58,2.04c-1.14,1.28-2.4,2.43-3.7,3.52
					c-0.65,0.54-1.32,1.07-2,1.58c-0.34,0.25-0.68,0.5-1.03,0.75l-0.52,0.37c-0.18,0.12-0.34,0.25-0.59,0.27l-0.25-0.38
					c0.1-0.22,0.28-0.33,0.45-0.44l0.51-0.36c0.34-0.24,0.68-0.49,1.01-0.75c0.67-0.51,1.32-1.03,1.96-1.57
					c1.28-1.08,2.51-2.22,3.6-3.47c0.55-0.62,1.06-1.28,1.5-1.96c0.23-0.34,0.42-0.7,0.6-1.06c0.19-0.39,0.41-0.78,0.68-1.15
					c0.27-0.36,0.58-0.71,0.99-0.98c0.4-0.27,0.9-0.45,1.4-0.45c0.51,0,0.99,0.16,1.4,0.39c0.2,0.11,0.41,0.24,0.6,0.43
					c0.18,0.18,0.34,0.38,0.45,0.61c0.76,1.68,0.87,3.43,0.83,5.15c-0.06,1.72-0.32,3.42-0.67,5.08c-0.36,1.67-0.83,3.3-1.36,4.92
					c-0.26,0.81-0.54,1.61-0.84,2.4l-0.45,1.19l-0.23,0.59l-0.12,0.29l-0.05,0.14l-0.01,0.03c0,0,0,0.01,0,0l0-0.01
					c-0.13-0.21,0.33,0.31-0.31-0.49c-0.46,0.01-0.44,0.22-0.42,0.14l-0.01,0.02c0,0,0,0,0,0l0.01-0.02L174.92,346.82z"/>
				<path class="st24" d="M191.64,347.87c1.44,0.51,2.19,2.09,1.68,3.53c-0.51,1.44-2.09,2.19-3.53,1.68
					c-1.44-0.51-2.19-2.09-1.68-3.53C188.62,348.11,190.2,347.36,191.64,347.87z"/>
				<polygon class="st24" points="191.15,348.51 186.37,344.34 184.43,346.56 188.37,350.17 				"/>
				<path class="st50" d="M186.36,349.12l-10.28-9.93c-0.35-0.31-0.59-0.72-0.7-1.18l-2.1-8.65c-0.3-1.25,0.46-2.51,1.71-2.81l0,0
					c1.25-0.3,2.51,0.46,2.81,1.71l1.93,7.96l9.74,9.44L186.36,349.12z"/>
				<path class="st53" d="M162.32,337.01c0,0-9.19,7.4,0.39,14.26c9.57,6.86,13.24-4.66,13.24-4.66L162.32,337.01z"/>
				<path class="st54" d="M162.32,337.01l13.63,9.6c0,0-4.77,6.58-12.11,1.85C156.49,343.73,162.32,337.01,162.32,337.01z"/>
			</g>
			<path class="st50" d="M163.75,349.41L163.75,349.41c-0.64,0-1.17-0.53-1.17-1.17l0,0c0-0.64,0.53-1.17,1.17-1.17l0,0
				c0.64,0,1.17,0.53,1.17,1.17l0,0C164.92,348.88,164.4,349.41,163.75,349.41z"/>
			<line class="st55" x1="182.28" y1="338.69" x2="179.73" y2="336.22"/>
			<path class="st55" d="M173.58,330.62l1.51,7.26c0.11,0.52,0.38,0.99,0.78,1.34l2.42,2.11"/>
		</g>
		<g>
			<g>
				<path class="st56" d="M56.62,371.9l-3.5,6.52l-13.2,17.19l-2.93-0.81l5.78-10.35c0,0,2.36-7.09,6.76-8.55l0.44-6.84L56.62,371.9
					z"/>
				<path class="st56" d="M61.22,363.15l5.47,13.23l3.62,19.81l-2.22,1.11c0,0-7.68-14.05-5.31-18.04l-7.03-9.39L61.22,363.15z"/>
				<path class="st57" d="M61.92,354.7c0,0,0.88,4.07,1.06,6.86c0.18,2.78,2.69,8.35,2.69,8.35s-10.8,7.01-21.57-1.57
					c0,0,6.41-10.64,8.34-14.27L61.92,354.7z"/>
				<path class="st52" d="M67.14,397.06c0.01-0.22,0.22-0.37,0.43-0.3c0.4,0.14,1.07,0.25,1.89-0.11c0.85-0.37,1.02-0.93,1.03-1.29
					c0.01-0.19,0.16-0.34,0.35-0.32l6.1,0.55c0.37,0.03,0.71,0.21,0.95,0.5l0,0c0.22,0.27,0.1,0.68-0.23,0.78l-9.23,2.84
					c-0.36,0.11-0.75-0.1-0.84-0.47l-0.45-1.81c-0.01-0.03-0.01-0.06-0.01-0.09L67.14,397.06z"/>
				<path class="st52" d="M37.22,393.76c0.14-0.17,0.4-0.15,0.52,0.03c0.23,0.36,0.69,0.86,1.55,1.08c0.89,0.23,1.38-0.1,1.61-0.38
					c0.12-0.15,0.34-0.17,0.48-0.04l4.47,4.19c0.27,0.25,0.43,0.61,0.44,0.98l0,0c0.01,0.35-0.34,0.6-0.66,0.47l-9.02-3.45
					c-0.36-0.14-0.52-0.54-0.37-0.89l0.76-1.71c0.01-0.03,0.03-0.05,0.05-0.08L37.22,393.76z"/>
				<g>
					<path class="st58" d="M59.81,333.84c0,0,3.52,3.86,2.1,20.86l-9.6,0.01v-20.07c0,0,0.69-1.77,4.32-2.13L59.81,333.84z"/>
					<g>
						<g>
							<path class="st57" d="M67.66,322.73c-0.85-1.97-15.81,0.55-15.84,3.31C51.79,328.81,68.73,325.21,67.66,322.73z"/>
						</g>
					</g>
					<g>
						<path class="st59" d="M63.71,323.74c0,0,3.73,0.17,1.9,2.85c-1.94,2.84-3.76-0.1-3.76-0.1L63.71,323.74z"/>
						<path class="st60" d="M58.48,333.34c-0.92-0.24-1.85-0.83-1.85-0.83l1.74-6.54l3.3,0.88l-1.86,6.99L58.48,333.34z"/>
						<path class="st24" d="M64.31,327.15c-0.53,1.98-2.56,3.16-4.54,2.63c-1.98-0.53-3.16-2.56-2.63-4.54
							c0.53-1.98,2.56-3.16,4.54-2.63C63.66,323.13,64.84,325.17,64.31,327.15z"/>
						<path class="st24" d="M60.71,331.27L60.71,331.27c-0.94-0.25-1.5-1.22-1.25-2.16l0.65-2.45l4.2,0.49l-0.64,2.4
							C63.33,330.84,62,331.61,60.71,331.27z"/>
						<path class="st56" d="M63.99,327.92l0.48,1.36c0.06,0.22-0.15,0.41-0.37,0.35l-0.95-0.07L63.99,327.92z"/>
						<g>
							<defs>
								<path id="SVGID_70_" d="M64.31,327.15c-0.53,1.98-2.56,3.16-4.54,2.63c-1.98-0.53-3.16-2.56-2.63-4.54
									c0.53-1.98,2.56-3.16,4.54-2.63C63.66,323.13,64.84,325.17,64.31,327.15z"/>
							</defs>
							<use xlink:href="#SVGID_70_"  style="overflow:visible;fill:#FFC9B2;"/>
							<clipPath id="SVGID_21_">
								<use xlink:href="#SVGID_70_"  style="overflow:visible;"/>
							</clipPath>
						</g>
						<path class="st61" d="M60.08,327.71c0,0,5.02-1.67,4.33-3.78c-1.26-3.88-5.54-1.48-5.54-1.48L60.08,327.71z"/>
						<path class="st61" d="M58.87,322.45c0,0-2.4-0.48-2.44,1.89c-0.03,2.02-0.23,1.56-1.41,2.12c-1.1,0.53-1.92,1.4-2.22,2.91
							c-0.04,0.19,0.07,0.38,0.26,0.43l5.36,1.43c0.07,0.02,0.14,0.02,0.2,0c0.48-0.15,2.4-0.91,1.13-3.51c0,0,0.39-1.89,1.82-1.78
							L58.87,322.45z"/>
						<path class="st24" d="M60.69,327.55c-0.15,0.54-0.7,0.87-1.25,0.72c-0.54-0.15-0.87-0.7-0.72-1.25
							c0.14-0.54,0.7-0.87,1.25-0.72C60.51,326.44,60.84,327,60.69,327.55z"/>
					</g>
					<g>
						<g>
							<path class="st57" d="M64.81,323.79c0,0-1.88-5.53-6.39-4.04c-4.19,1.38-2.91,5.9-2.91,5.9L64.81,323.79z"/>
						</g>
					</g>
					<g>
						<g>
							<path class="st62" d="M55.74,323.95c0.01,0,0.02,0,0.03,0c2.52-0.69,5.12-1.23,7.71-1.61c0.07-0.01,0.12-0.08,0.11-0.15
								c-0.01-0.07-0.07-0.12-0.15-0.11c-2.6,0.38-5.21,0.92-7.74,1.62c-0.07,0.02-0.11,0.09-0.09,0.17
								C55.63,323.91,55.68,323.95,55.74,323.95z"/>
						</g>
					</g>
					<g>
						<path class="st52" d="M60.49,346.02l0.25,9.13c0.02,0.65-0.52,1.19-1.19,1.19H47.16c-0.71,0-1.26-0.6-1.19-1.28l1.09-8.01
							L60.49,346.02z"/>
						<path class="st63" d="M59.55,345.24c-0.36-2.42-0.79-4.83-1.45-7.17c-0.34-1.16-0.73-2.32-1.32-3.34
							c-0.3-0.5-0.64-0.97-1.11-1.18c-0.48-0.23-1.06-0.3-1.58-0.21c-0.52,0.08-0.95,0.4-1.31,0.82c-0.36,0.42-0.63,0.94-0.87,1.48
							c-0.46,1.09-0.78,2.26-1.06,3.44c-0.56,2.37-0.99,4.78-1.46,7.19l-1.03-0.21c0.53-2.39,1.01-4.8,1.63-7.19
							c0.32-1.2,0.66-2.39,1.19-3.55c0.27-0.58,0.58-1.15,1.03-1.66c0.22-0.25,0.48-0.48,0.78-0.67c0.29-0.19,0.66-0.32,0.99-0.37
							c0.69-0.09,1.38,0,2,0.32c0.32,0.15,0.6,0.4,0.81,0.66c0.22,0.26,0.39,0.53,0.55,0.81c0.61,1.13,0.98,2.32,1.3,3.51
							c0.62,2.4,1,4.83,1.3,7.27L59.55,345.24z"/>
						<path class="st64" d="M60.37,345.18l-13.07,0.56c0,0-1.2,2.51,0.29,4.03c0.5,0.51,1.22,0.77,1.95,0.77h8.02
							c1.11,0,2.12-0.63,2.56-1.62C60.48,348.09,60.7,346.89,60.37,345.18z"/>
					</g>
					<path class="st59" d="M64.81,330.65l-5.25-4.23c-0.28-0.23-0.69-0.19-0.93,0.09L57,328.41c-0.24,0.29-0.21,0.71,0.09,0.95
						l5.25,4.27c0.28,0.23,0.7,0.19,0.93-0.09l1.64-1.95C65.15,331.31,65.11,330.88,64.81,330.65z"/>
					<g>
						<path class="st24" d="M58.97,331.62c-0.23-1.44,0.75-2.8,2.19-3.03c1.44-0.23,2.8,0.75,3.03,2.19
							c0.23,1.44-0.75,2.8-2.19,3.03C60.56,334.05,59.2,333.07,58.97,331.62z"/>
						<polygon class="st24" points="61.24,330.8 59.94,336.74 62.7,337.34 63.91,332.38 						"/>
					</g>
					<path class="st25" d="M59.71,347.78c0.16,0,0.32-0.02,0.48-0.06c0.7-0.18,1.21-0.77,1.36-1.47l2.27-10.59l-3.79-0.93
						l-1.22,5.21l-1.87-5.16c-0.67-1.35-2.66-2.01-3.92-1.17l0,0c-1.17,0.78-1.64,2.85-0.85,4.01l5.92,9.25
						C58.44,347.44,59.06,347.78,59.71,347.78z"/>
				</g>
			</g>
			<path class="st50" d="M52.8,350.8L52.8,350.8c-0.37,0-0.67-0.3-0.67-0.67v-1.42c0-0.37,0.3-0.67,0.67-0.67l0,0
				c0.37,0,0.67,0.3,0.67,0.67v1.42C53.47,350.5,53.17,350.8,52.8,350.8z"/>
		</g>
	</g>
	<g>
		<g>
			<polygon class="st24" points="543.72,100.91 543.08,104.52 546.29,104.71 546.9,101.17 			"/>
			<polygon class="st24" points="568.28,92.03 571.03,94.44 572.87,91.8 570.15,89.44 			"/>
			<path class="st33" d="M547.24,70.61l3.22,9.07c0.65,1.82,0.97,3.73,0.97,5.65l-3.6,16.68l-5.29-0.06l1.85-17.89l-5.93-15.96
				L547.24,70.61z"/>
			<path class="st27" d="M542.85,103.7c0.11-0.18,0.35-0.2,0.49-0.05c0.27,0.3,0.78,0.7,1.62,0.78c0.87,0.08,1.27-0.3,1.45-0.6
				c0.09-0.16,0.29-0.21,0.44-0.11l4.82,3.25c0.29,0.2,0.5,0.5,0.56,0.85l0,0c0.06,0.33-0.23,0.61-0.55,0.54l-8.98-1.86
				c-0.35-0.07-0.57-0.43-0.48-0.78l0.45-1.71c0.01-0.03,0.02-0.06,0.03-0.08L542.85,103.7z"/>
			<path class="st24" d="M533.29,77.96c0.69,1.13,0.34,2.6-0.78,3.29c-1.13,0.69-2.6,0.34-3.29-0.78c-0.69-1.13-0.34-2.6,0.78-3.29
				C531.12,76.49,532.6,76.84,533.29,77.96z"/>
			<polygon class="st24" points="533.57,78.6 532.6,73.19 530.08,73.64 530.79,78.21 			"/>
			<path class="st24" d="M553.62,61.1c1.29-0.31,2.58,0.48,2.89,1.77c0.31,1.29-0.48,2.58-1.77,2.89c-1.29,0.31-2.58-0.48-2.89-1.77
				C551.54,62.7,552.34,61.41,553.62,61.1z"/>
			<polygon class="st24" points="554.31,61.04 548.87,60.27 548.52,62.81 553.08,63.56 			"/>
			
				<rect x="543" y="53.8" transform="matrix(0.2906 -0.9568 0.9568 0.2906 329.3033 564.5515)" class="st65" width="4.77" height="12.78"/>
			<path class="st50" d="M544.04,60.76l-8.57,4.94l-6.89-11.94c-1.07-1.85-0.43-4.22,1.42-5.29l0.2-0.12
				c2.77-1.6,6.31-0.65,7.9,2.12L544.04,60.76z"/>
			<path class="st66" d="M544.04,60.76l27.48,28.72l-3.26,3.98l-15-13.94l-12.34-7.66c-0.57-0.33-1.15-0.69-1.7-1.09
				c-1.04-0.75-1.88-1.74-2.51-2.86l-1.25-2.21L544.04,60.76z"/>
			<path class="st27" d="M570.21,94.22c-0.1-0.18,0.01-0.41,0.21-0.45c0.4-0.08,1-0.31,1.5-0.98c0.52-0.7,0.4-1.25,0.24-1.55
				c-0.09-0.16-0.03-0.36,0.14-0.43l5.28-2.44c0.32-0.15,0.69-0.16,1.02-0.04l0,0c0.31,0.12,0.41,0.51,0.18,0.75l-6.25,6.72
				c-0.25,0.26-0.66,0.27-0.91,0.01l-1.23-1.27c-0.02-0.02-0.04-0.05-0.05-0.07L570.21,94.22z"/>
			<path class="st50" d="M533.86,75.49l-4.7,0.83l-2.97-13.12l1.89-11.86c0.11-1.31,1.27-2.29,2.58-2.17l0,0
				c1.31,0.11,2.29,1.27,2.17,2.58L531,62.99L533.86,75.49z"/>
			<g>
				<path class="st67" d="M530.33,48.63c0.25,0.27,0.59,0.48,0.87,0.5c0.3,0.01,0.66-0.06,1.04-0.23c0.16-0.08,0.32-0.16,0.45-0.28
					c0.12-0.11,0.29-0.27,0.36-0.38c0.08-0.12,0.13-0.19,0.15-0.32c0.03-0.13-0.01-0.32-0.08-0.53l-0.01-0.04
					c-0.08-0.24,0.05-0.5,0.29-0.58c0.15-0.05,0.31-0.02,0.43,0.07c0.24,0.19,0.46,0.48,0.58,0.86c0.12,0.38,0.06,0.84-0.1,1.18
					c-0.17,0.35-0.35,0.59-0.6,0.83c-0.25,0.23-0.54,0.43-0.85,0.56c-0.57,0.23-1.27,0.39-1.99,0.15c-0.72-0.25-1.21-0.82-1.36-1.5
					c-0.05-0.24,0.1-0.47,0.34-0.52c0.16-0.03,0.32,0.02,0.42,0.13L530.33,48.63z"/>
			</g>
			<path class="st24" d="M532.89,49.25l-0.28,0.16c-0.91,0.53-2.08,0.21-2.6-0.7l-3.5-6.06l3.29-1.9l3.66,6.35
				C533.9,47.86,533.64,48.82,532.89,49.25z"/>
			<line class="st68" x1="531.64" y1="59.06" x2="532.34" y2="55.61"/>
			<path class="st68" d="M528.93,62.71c0,0,0.6-0.35,1.49,0.44"/>
			<line class="st69" x1="543.94" y1="64.44" x2="547.04" y2="65.47"/>
			<line class="st69" x1="567.03" y1="92.12" x2="570.36" y2="88.45"/>
			<line class="st69" x1="536.04" y1="66.44" x2="544.57" y2="61.52"/>
			<polyline class="st69" points="539.62,64.37 556.54,77.22 568.57,90.06 			"/>
			<path class="st30" d="M530.53,45.2c0,0,0.77,1.78,2.65,1.42l-0.64-1.11L530.53,45.2z"/>
			<circle class="st24" cx="528.68" cy="41.4" r="4.13"/>
			<path class="st24" d="M532.84,45.74L532.84,45.74c-0.94,0.54-2.13,0.22-2.68-0.72l-1.97-3.42l4.03-2.32l1.61,2.79
				C534.57,43.36,534.13,45,532.84,45.74z"/>
			<path class="st24" d="M532.61,40.2l1.44,0.7c0.22,0.12,0.21,0.44-0.02,0.57l-0.81,0.69L532.61,40.2z"/>
			<g>
				<defs>
					<circle id="SVGID_72_" cx="528.68" cy="41.4" r="4.13"/>
				</defs>
				<clipPath id="SVGID_23_">
					<use xlink:href="#SVGID_72_"  style="overflow:visible;"/>
				</clipPath>
				<path style="clip-path:url(#SVGID_23_);fill:#121C21;" d="M529.92,42.75c0,0,0.51-1.8-1.21-3.24c0,0,2.73-1.19,2.78-2.39
					c0,0-4.68-3.14-7.41,1.31c-2.73,4.45,1.71,7.93,1.71,7.93l3.83-0.95L529.92,42.75z"/>
			</g>
			<path class="st24" d="M530.12,42.63c0.31,0.54,0.13,1.24-0.42,1.55c-0.54,0.31-1.24,0.13-1.55-0.42
				c-0.31-0.54-0.13-1.24,0.42-1.55C529.11,41.9,529.8,42.09,530.12,42.63z"/>
			<path class="st32" d="M527.64,44.8l1.07,1.65c0,0,2.08-0.65,1.11-2.34l-0.98,0.83L527.64,44.8z"/>
		</g>
		<g>
			<g>
				<path class="st71" d="M536.44,131.92c-0.01,0.01-0.02,0.01-0.03,0.01c-0.07,0.03-0.15,0-0.18-0.08l-2.68-6.55
					c-0.03-0.07,0-0.15,0.08-0.18c0.07-0.03,0.15,0,0.18,0.08l2.68,6.55C536.52,131.81,536.49,131.88,536.44,131.92z"/>
				<polygon class="st72" points="579.24,161.73 582.7,162.72 581.49,165.65 578.08,164.65 				"/>
				<polygon class="st72" points="570.03,174.8 571.97,177.84 569.13,179.23 567.23,176.23 				"/>
				<path class="st73" d="M550.89,151.71l6.63,6.78c1.33,1.36,2.88,2.48,4.58,3.31l16.32,4.04l2.24-4.7l-16.96-5.91l-11.55-12.17
					L550.89,151.71z"/>
				<path class="st27" d="M582.08,162.16c-0.2,0.02-0.33,0.22-0.26,0.41c0.15,0.37,0.28,0.99-0.02,1.77c-0.31,0.81-0.82,1-1.16,1.02
					c-0.18,0.01-0.31,0.17-0.29,0.35l0.78,5.68c0.05,0.34,0.23,0.66,0.51,0.87l0,0c0.26,0.2,0.64,0.07,0.72-0.25l2.25-8.75
					c0.09-0.34-0.13-0.69-0.48-0.76l-1.71-0.35c-0.03-0.01-0.06-0.01-0.09,0L582.08,162.16z"/>
				<path class="st74" d="M545.27,144.64l8.97,17.16l12.47,15.64l4.34-2.56l-11.38-16.15l-1.9-10.06c-0.19-0.62-0.49-4.14-0.75-4.76
					c-0.49-1.16-1.26-2.19-2.19-3.04l-1.84-1.69L545.27,144.64z"/>
				<path class="st27" d="M571.88,177.01c-0.16-0.12-0.4-0.05-0.47,0.14c-0.13,0.38-0.45,0.93-1.18,1.32c-0.76,0.4-1.27,0.2-1.55,0
					c-0.14-0.11-0.34-0.08-0.44,0.07l-3.17,4.78c-0.19,0.29-0.26,0.65-0.19,0.99l0,0c0.07,0.32,0.44,0.47,0.71,0.29l7.47-5.08
					c0.29-0.2,0.36-0.61,0.15-0.89l-1.06-1.39c-0.02-0.02-0.04-0.04-0.06-0.06L571.88,177.01z"/>
				<path class="st72" d="M545.27,144.64l7.71-5.46l-7.48-10.45c-1.18-1.75-3.66-3.04-5.41-1.86l-0.19,0.13
					c-2.61,1.76-3.31,5.3-1.55,7.91L545.27,144.64z"/>
				<path class="st24" d="M539.55,129.76l0.26-0.18c0.86-0.58,1.09-1.75,0.51-2.61l-3.85-5.72l-3.1,2.09l4.04,6
					C537.88,130.05,538.84,130.24,539.55,129.76z"/>
				<path class="st24" d="M531.05,124.9c1.25,1.86,3.78,2.36,5.64,1.1c1.86-1.25,2.36-3.78,1.1-5.64c-1.25-1.86-3.78-2.36-5.64-1.1
					C530.29,120.51,529.8,123.04,531.05,124.9z"/>
				<path class="st24" d="M536.46,128.2L536.46,128.2c0.88-0.6,1.12-1.79,0.52-2.68l-2.17-3.23l-3.8,2.56l1.77,2.63
					C533.6,128.69,535.25,129.02,536.46,128.2z"/>
				<path class="st24" d="M531.66,125.59l-0.01,1.58c0.01,0.25,0.3,0.37,0.51,0.23l0.96-0.41L531.66,125.59z"/>
				<g>
					<defs>
						<path id="SVGID_74_" d="M531.05,124.9c1.25,1.86,3.78,2.36,5.64,1.1c1.86-1.25,2.36-3.78,1.1-5.64
							c-1.25-1.86-3.78-2.36-5.64-1.1C530.29,120.51,529.8,123.04,531.05,124.9z"/>
					</defs>
					<clipPath id="SVGID_25_">
						<use xlink:href="#SVGID_74_"  style="overflow:visible;"/>
					</clipPath>
					<path style="clip-path:url(#SVGID_25_);fill:#121C21;" d="M535.08,124.32c0,0-1.81-0.33-2.34-2.47c0,0-2.23,1.9-3.32,1.42
						c0,0-0.75-5.5,4.37-5.99c5.12-0.49,6.28,4.95,6.28,4.95l-2.5,2.97L535.08,124.32z"/>
				</g>
				<path class="st32" d="M537.88,123.19l1.29,1.26c0,0-1.46,1.67-2.84,0.37l1.16-0.51L537.88,123.19z"/>
				
					<rect x="534.33" y="123.08" transform="matrix(-0.8296 0.5583 -0.5583 -0.8296 1047.5126 -70.8658)" class="st32" width="0.47" height="2.61"/>
				<path class="st32" d="M532.6,127.21c0,0,1.14-1.51,2.89-1.87l1.76,1.65c0,0,0.01,0.98-1.4,1.55
					C534.23,129.19,532.97,127.91,532.6,127.21z"/>
				<path class="st32" d="M537.26,126.99c0,0-0.14-1.33-1.95-2.4l-1.24-0.94l1.4,2.5L537.26,126.99z"/>
				<path class="st24" d="M534.89,124.44c0.34,0.51,1.04,0.65,1.55,0.3c0.51-0.34,0.65-1.04,0.3-1.55c-0.34-0.51-1.04-0.65-1.55-0.3
					C534.68,123.23,534.54,123.93,534.89,124.44z"/>
				<polygon class="st72" points="540.72,126.57 539.93,125.59 536.99,130.06 538.16,131.92 540.98,128.94 				"/>
				<path class="st71" d="M545.87,158.22c-1.03,0.69-2.58,0.81-4.65,0.35c-3.24-0.73-5.03-1.8-5.31-3.2
					c-0.35-1.75,1.79-3.29,1.88-3.36c0,0,0,0,0,0c0.06-0.04,0.15-0.03,0.19,0.03c0.04,0.06,0.03,0.15-0.03,0.19
					c-0.02,0.01-2.09,1.51-1.77,3.08c0.26,1.28,1.97,2.28,5.1,2.98c2.75,0.62,4.54,0.17,5.32-1.32c1.93-3.7-2.97-13.32-7.02-17.02
					c-1.99-1.82-2.87-3.55-3.26-4.68c-0.29-0.85-0.36-1.81-0.19-2.83c0.58-3.61-0.75-8.34-0.77-8.39c-0.02-0.07,0.02-0.15,0.1-0.17
					c0.07-0.02,0.15,0.02,0.17,0.1c0.01,0.05,1.37,4.84,0.77,8.51c-0.16,0.98-0.1,1.89,0.18,2.7c0.38,1.1,1.24,2.78,3.18,4.56
					c4.11,3.76,9.12,13.43,7.08,17.36C546.62,157.57,546.29,157.95,545.87,158.22z"/>
				<path class="st33" d="M537.42,153.99l6.88-1.4c0.11-0.02,0.18-0.13,0.16-0.24l-0.56-2.73c-0.02-0.11-0.13-0.18-0.24-0.16
					l-6.88,1.4c-0.11,0.02-0.18,0.13-0.16,0.24l0.56,2.73C537.2,153.94,537.31,154.01,537.42,153.99z"/>
				<g>
					<path class="st24" d="M545.11,133.06l1.32,8.64l0.03,0.16c0.05,0.35-0.02,0.7-0.18,0.98l-5.18,9.05l-2.24-1.14l4.28-9.51
						l-0.16,1.15l-2.1-8.48L545.11,133.06z"/>
					<path class="st24" d="M538.05,150.83c-0.44,1.18,0.16,2.5,1.34,2.94c1.18,0.44,2.5-0.16,2.94-1.34
						c0.44-1.18-0.16-2.5-1.34-2.94C539.81,149.04,538.49,149.65,538.05,150.83z"/>
					<path class="st76" d="M546.45,134.71l-1.91-5.12c-0.43-1.33-1.92-2.12-3.33-1.76l0,0c-1.41,0.36-2.07,1.72-1.77,3.06l0.67,5.44
						L546.45,134.71z"/>
				</g>
			</g>
			<line class="st77" x1="546.16" y1="145.53" x2="553.56" y2="140.21"/>
			<polyline class="st77" points="549.94,142.99 557.35,160.17 567.99,174.81 			"/>
			<line class="st77" x1="566" y1="176.15" x2="569.92" y2="173.51"/>
		</g>
		<g>
			<g>
				<g>
					<path class="st56" d="M485.08,273.32l9.8,4.99l0.07,0.03c0.59,0.3,0.86,0.98,0.67,1.59l-1.38,10.37l-2.09-0.58l0.78-10.53
						l0.74,1.63l-9.99-4.58L485.08,273.32z"/>
					<path class="st56" d="M491.75,292.41c0.62,0.9,1.85,1.13,2.75,0.51c0.9-0.62,1.13-1.85,0.51-2.75
						c-0.62-0.9-1.85-1.13-2.75-0.51S491.14,291.51,491.75,292.41z"/>
					<path class="st53" d="M489.91,274.06l-4.91-1.07c-1.38-0.27-2.15,0.19-2.51,1.22l0,0c-0.31,0.84,0.05,1.76,1.22,2.51l3.75,2.55
						L489.91,274.06z"/>
				</g>
				<path class="st56" d="M506.31,299.45l12.56,14.33l1.57-1.13c0,0-5.38-9.58-10.71-15.48L506.31,299.45z"/>
				<path class="st56" d="M511.93,293.55l18.58,4.23l0.6-1.84c0,0-9.98-4.6-17.75-6.25L511.93,293.55z"/>
				<path class="st78" d="M484.11,269.91l2.19-1.01c2.24-0.7,4.95,0.29,6.43,2.12l4.87,7.2l-5.42,5.5l-3.98-4.67
					c0,0-1.72,0.83-2.85-0.75c-1.13-1.57-3.16-5.02-2.43-7.31L484.11,269.91z"/>
				<g>
					<defs>
						<path id="SVGID_76_" d="M484.11,269.91l2.19-1.01c2.24-0.7,4.95,0.29,6.43,2.12l4.87,7.2l-5.42,5.5l-3.98-4.67
							c0,0-1.72,0.83-2.85-0.75c-1.13-1.57-3.16-5.02-2.43-7.31L484.11,269.91z"/>
					</defs>
					<clipPath id="SVGID_27_">
						<use xlink:href="#SVGID_76_"  style="overflow:visible;"/>
					</clipPath>
					<g style="clip-path:url(#SVGID_27_);">
						<line class="st80" x1="490.24" y1="284.01" x2="497.66" y2="276.46"/>
						<line class="st80" x1="489.46" y1="283.31" x2="496.89" y2="275.76"/>
						<line class="st80" x1="488.68" y1="282.61" x2="496.11" y2="275.06"/>
						<line class="st80" x1="487.9" y1="281.91" x2="495.33" y2="274.36"/>
						<line class="st80" x1="487.13" y1="281.2" x2="494.55" y2="273.66"/>
						<line class="st80" x1="486.35" y1="280.5" x2="493.77" y2="272.95"/>
						<line class="st80" x1="485.57" y1="279.8" x2="492.99" y2="272.25"/>
						<line class="st80" x1="484.79" y1="279.1" x2="492.21" y2="271.55"/>
						<line class="st80" x1="484.01" y1="278.4" x2="491.44" y2="270.85"/>
						<line class="st80" x1="483.23" y1="277.69" x2="490.66" y2="270.15"/>
						<line class="st80" x1="482.45" y1="276.99" x2="489.88" y2="269.44"/>
						<line class="st80" x1="481.68" y1="276.29" x2="489.1" y2="268.74"/>
						<line class="st80" x1="480.9" y1="275.59" x2="488.32" y2="268.04"/>
						<line class="st80" x1="480.12" y1="274.89" x2="487.54" y2="267.34"/>
					</g>
				</g>
				<path class="st81" d="M520.12,310.81c-0.15-0.08-0.34,0-0.37,0.17c-0.07,0.33-0.26,0.82-0.83,1.23
					c-0.59,0.42-1.03,0.31-1.28,0.18c-0.13-0.07-0.29-0.03-0.36,0.11l-2.08,4.32c-0.13,0.26-0.14,0.56-0.05,0.84l0,0
					c0.09,0.26,0.42,0.34,0.62,0.16l5.61-5.07c0.22-0.2,0.23-0.54,0.02-0.75l-1.03-1.03c-0.02-0.02-0.04-0.03-0.06-0.04
					L520.12,310.81z"/>
				<path class="st81" d="M530.98,295.11c-0.17-0.01-0.31,0.14-0.27,0.3c0.07,0.33,0.09,0.86-0.27,1.46
					c-0.37,0.62-0.82,0.7-1.1,0.68c-0.15-0.01-0.28,0.09-0.29,0.24l-0.16,4.79c-0.01,0.29,0.1,0.57,0.3,0.79l0,0
					c0.19,0.2,0.52,0.14,0.63-0.1l3.1-6.89c0.12-0.27-0.01-0.59-0.29-0.7l-1.36-0.53c-0.02-0.01-0.05-0.01-0.07-0.02L530.98,295.11z
					"/>
				<g>
					<g>
						<path class="st82" d="M476.52,269.96c1.88,0.87,4.64,0.65,5.34-0.87c0.7-1.52-0.25-3.45-2.13-4.31
							c-1.88-0.87-3.96-0.34-4.66,1.18C474.36,267.47,474.64,269.09,476.52,269.96z"/>
						<path class="st56" d="M484.35,271.27L484.35,271.27c0.59-0.65,1.35-1.29,0.7-1.88l-4.35-3.92l-2.13,2.36l4.56,4.11
							C483.67,272.43,483.87,271.81,484.35,271.27z"/>
						
							<ellipse transform="matrix(0.6697 -0.7427 0.7427 0.6697 -39.9774 444.1728)" class="st56" cx="479.3" cy="267.02" rx="3.45" ry="3.45"/>
						<path class="st56" d="M481.88,270.97L481.88,270.97c0.61-0.67,0.55-1.71-0.12-2.32l-1.76-1.58l-3.02,2.51l1.72,1.55
							C479.63,271.97,481.05,271.9,481.88,270.97z"/>
						<path class="st56" d="M477.62,270.03l0.32,1.3c0.06,0.2,0.32,0.25,0.47,0.08l0.71-0.54L477.62,270.03z"/>
						<g>
							<defs>
								
									<ellipse id="SVGID_78_" transform="matrix(0.6697 -0.7427 0.7427 0.6697 -39.9774 444.1728)" cx="479.3" cy="267.02" rx="3.45" ry="3.45"/>
							</defs>
							<clipPath id="SVGID_29_">
								<use xlink:href="#SVGID_78_"  style="overflow:visible;"/>
							</clipPath>
						</g>
						<circle class="st24" cx="480.69" cy="267.71" r="0.95"/>
						<path class="st83" d="M476.29,267.68c1.53,1.38,5.15,1.97,6.53,0.43c1.38-1.53,0.58-3.66-0.95-5.05
							c-1.53-1.38-3.9-1.26-5.28,0.27C475.2,264.88,474.75,266.3,476.29,267.68z"/>
					</g>
					<path class="st83" d="M479.56,262.39c1.02,0.92,2.59,0.84,3.5-0.18c0.92-1.02,0.84-2.59-0.18-3.51
						c-1.02-0.92-2.59-0.84-3.51,0.18S478.54,261.47,479.56,262.39z"/>
				</g>
				<path class="st56" d="M485.26,269.68c0,0,2.38,4.93,0.38,6.08c-1.2,0.69-2.59-4.18-2.59-4.18L485.26,269.68z"/>
				<path class="st72" d="M492.17,283.72l14.21,17.01c0,0,5-0.89,7.54-5.2c2.54-4.31-0.43-6.34,3.17-9.5c0,0-12.86-6.32-19.52-7.82
					L492.17,283.72z"/>
				<g>
					<path class="st56" d="M491.66,269.15l8.03,2.76l0.12,0.04c0.41,0.14,0.72,0.45,0.88,0.83l4.14,10.05l-2.06,0.96l-5.03-9.64
						l1,0.87l-8.2-2.2L491.66,269.15z"/>
					<path class="st56" d="M503.42,285.49c0.87,0.75,2.17,0.65,2.92-0.22c0.75-0.87,0.65-2.17-0.22-2.92
						c-0.87-0.75-2.17-0.65-2.92,0.22C502.45,283.43,502.55,284.74,503.42,285.49z"/>
					<path class="st53" d="M494.46,268.75l-5.21-0.7c-1.46-0.17-2.23,0.38-2.51,1.49l0,0c-0.25,0.91,0.2,1.83,1.49,2.51l4.13,2.34
						L494.46,268.75z"/>
				</g>
				<path class="st84" d="M479.29,262.11c0,0,1.6-0.17,2.58,0.96"/>
			</g>
			<path class="st30" d="M481.96,270.89c0,0,0.46-0.79,0.3-1.4c0,0,0.85,0.57,0.27,1.92L481.96,270.89z"/>
		</g>
		<g>
			<g>
				<path class="st24" d="M450.09,155.56c1.09,0.11,2.06-0.68,2.17-1.77c0.11-1.09-0.68-2.06-1.77-2.17
					c-1.09-0.11-2.06,0.68-2.17,1.77C448.21,154.48,449.01,155.45,450.09,155.56z"/>
				<polygon class="st24" points="449.98,155 445.6,156.23 445.03,154.19 448.69,153.07 				"/>
			</g>
			<path class="st85" d="M449.4,155.88l-6.84,2.66c-0.37,0.14-0.78,0.15-1.16,0.01l-9.77-3.56l1.13-3.1l9.19,3.35l6.27-2.43
				L449.4,155.88z"/>
			<g>
				<path class="st32" d="M448.86,147.84l-2.26,5.92c-0.06,0.16,0.01,0.34,0.17,0.41l2.85,1.27c0.17,0.08,0.37-0.01,0.43-0.18
					l2.15-5.91c0.06-0.16-0.02-0.33-0.17-0.4l-2.74-1.28C449.13,147.58,448.92,147.67,448.86,147.84z"/>
				<path class="st10" d="M449.25,148.53l-1.91,4.71c-0.04,0.11,0,0.24,0.11,0.29l2.06,1.05c0.12,0.06,0.27,0,0.32-0.13l1.77-4.89
					c0.04-0.11-0.01-0.24-0.12-0.29l-1.92-0.86C449.44,148.36,449.3,148.41,449.25,148.53z"/>
			</g>
			<path class="st86" d="M440.71,153.72c0,0,0.44-2.05-0.08-2.71c-0.52-0.66-3.42-1.64-3.42-1.64l-4.51-1.71L440.71,153.72z"/>
			<path class="st87" d="M427.3,146.88c0,0,1.25,2.13-0.25,3.44c-3.51,3.04-1.6,7.28,2.58,6.76c4.18-0.51,6.01-5.49,2.84-8.47
				c-3.17-2.98-3.82-3.73-3.82-3.73L427.3,146.88z"/>
			<path class="st88" d="M427.63,148.3c0,0,0.78,0.41,1.63-0.42"/>
			<polygon class="st86" points="431.58,149.02 430.78,153.74 439.39,162.67 444.68,157.79 436.96,149.96 			"/>
			<path class="st24" d="M451.59,165.87l3.06,12.09l-0.2,19.3l-1.81,1.37c0,0-3.86-11.28-2.36-18.82l-4.82-11.86L451.59,165.87z"/>
			<path class="st86" d="M452.14,197.68c-0.03-0.18,0.1-0.35,0.27-0.32c0.33,0.05,0.69-0.12,1.25-0.55
				c0.58-0.45,0.79-0.81,0.73-1.11c-0.03-0.16,0.06-0.31,0.21-0.33l4.76-0.57c0.29-0.03,0.58,0.06,0.82,0.26l0,0
				c0.22,0.19,0.2,0.55-0.04,0.7l-6.55,3.95c-0.26,0.16-0.59,0.04-0.73-0.26l-0.67-1.45c-0.01-0.02-0.02-0.05-0.02-0.08
				L452.14,197.68z"/>
			<g>
				<path class="st24" d="M448.55,163.82l11.77,6.49l13.51,10.59l-1.62,1.75c0,0-11.81-4.97-13.99-8.96l-12.5-2.7L448.55,163.82z"/>
				<path class="st86" d="M471.79,182.83c-0.13-0.14-0.1-0.35,0.05-0.42c0.31-0.14,0.52-0.47,0.75-1.14
					c0.24-0.7,0.22-1.11,0.01-1.33c-0.11-0.12-0.12-0.3,0-0.39l3.69-3.06c0.22-0.19,0.52-0.27,0.83-0.23l0,0
					c0.29,0.04,0.47,0.36,0.35,0.61l-3.35,6.87c-0.13,0.27-0.47,0.35-0.75,0.18l-1.35-0.85c-0.02-0.01-0.04-0.03-0.06-0.05
					L471.79,182.83z"/>
			</g>
			<g>
				<path class="st87" d="M431.4,140.25c1.42,1.63,0.44,5.29-0.88,6.44c-1.32,1.15-1.97-0.06-3.39-1.69
					c-1.42-1.63-1.5-3.89-0.18-5.04C428.27,138.81,429.98,138.62,431.4,140.25z"/>
				<path class="st24" d="M433.21,149.45L433.21,149.45c-0.7,0.61-1.38,1.39-1.98,0.69l-4.02-4.64l2.51-2.18l4.22,4.86
					C434.43,148.76,433.78,148.95,433.21,149.45z"/>
				<path class="st24" d="M431.59,141.7c1.31,1.51,1.15,3.79-0.36,5.1c-1.51,1.31-3.79,1.15-5.1-0.36c-1.31-1.51-1.15-3.79,0.36-5.1
					C427.99,140.03,430.28,140.19,431.59,141.7z"/>
				<path class="st24" d="M432.94,146.86L432.94,146.86c-0.72,0.62-1.8,0.55-2.42-0.17l-1.62-1.87l2.69-3.12l1.59,1.83
					C434.03,144.51,433.93,146,432.94,146.86z"/>
				<path class="st24" d="M432.04,142.38l1.36,0.36c0.21,0.07,0.25,0.34,0.08,0.49l-0.58,0.73L432.04,142.38z"/>
				<g>
					<defs>
						<path id="SVGID_80_" d="M431.59,141.7c1.31,1.51,1.15,3.79-0.36,5.1c-1.51,1.31-3.79,1.15-5.1-0.36
							c-1.31-1.51-1.15-3.79,0.36-5.1C427.99,140.03,430.28,140.19,431.59,141.7z"/>
					</defs>
					<clipPath id="SVGID_31_">
						<use xlink:href="#SVGID_80_"  style="overflow:visible;"/>
					</clipPath>
				</g>
				<path class="st24" d="M430.3,144.89c0.36,0.41,0.32,1.04-0.1,1.4c-0.41,0.36-1.04,0.32-1.4-0.1c-0.36-0.41-0.32-1.04,0.1-1.4
					S429.94,144.47,430.3,144.89z"/>
				<path class="st89" d="M429.6,140.93c1.42,1.63,1.72,5.16,0.09,6.58c-1.63,1.42-3.61,0.81-5.03-0.82
					c-1.42-1.63-1.24-4.11,0.39-5.53C426.68,139.74,428.18,139.29,429.6,140.93z"/>
			</g>
			<polygon class="st24" points="431.83,150.41 435.7,149.61 433.37,147.91 			"/>
			<path class="st66" d="M444.68,157.79l14.12,9.03c0,0-5.98,13.52-15.95,13.02l-3.46-17.17L444.68,157.79z"/>
			<g>
				<path class="st24" d="M443.65,170.08c0.67,0.87,1.91,1.03,2.78,0.36c0.87-0.67,1.03-1.91,0.36-2.78
					c-0.67-0.87-1.91-1.03-2.78-0.36C443.14,167.97,442.98,169.21,443.65,170.08z"/>
				<polygon class="st24" points="443.98,169.61 440.08,167.28 441.16,165.46 444.49,167.34 				"/>
			</g>
			<path class="st86" d="M442.82,169.45l-8.61-4.61c-0.4-0.21-0.69-0.58-0.81-1.01l-2.68-9.2c-0.24-0.88,0.27-1.79,1.15-2.03l0,0
				c0.88-0.24,1.79,0.27,2.03,1.15l2.49,8.53l7.99,4.28L442.82,169.45z"/>
			<g>
				<path class="st90" d="M431.25,150.17l4.37-0.91l-0.17,0.63l-1.5-1.58c-0.07-0.07-0.06-0.18,0.01-0.25
					c0.06-0.06,0.16-0.06,0.23-0.01l1.75,1.3c0.16,0.12,0.19,0.34,0.07,0.49c-0.05,0.07-0.13,0.12-0.21,0.13l-0.03,0.01l-4.37,0.91
					c-0.2,0.04-0.39-0.09-0.43-0.28C430.93,150.4,431.05,150.21,431.25,150.17z"/>
			</g>
			<line class="st91" x1="435.25" y1="158.35" x2="434.28" y2="155.01"/>
			<path class="st91" d="M435.3,163.44c0,0,0.07-0.51,0.82-0.71"/>
			<path class="st30" d="M432.85,146.93c0,0-0.61,0.4-1.66,0.23c0,0,0.81,0.82,2.36,0.59L432.85,146.93z"/>
		</g>
		<g>
			<g>
				<path class="st24" d="M558.42,223.1c-0.37,1.17,0.28,2.43,1.45,2.8c1.17,0.37,2.43-0.28,2.8-1.45c0.37-1.17-0.28-2.43-1.45-2.8
					C560.04,221.27,558.79,221.92,558.42,223.1z"/>
				<polygon class="st24" points="559.06,223.1 558.71,217.99 561.09,217.83 561.48,222.12 				"/>
			</g>
			<g>
				<path class="st27" d="M598.49,227.22c-0.15-0.07-0.31,0.02-0.32,0.17c-0.02,0.3-0.46,0.36-0.93,0.76
					c-0.49,0.42-0.6,0.76-0.84,0.65c-0.13-0.06-0.27-0.01-0.32,0.12l-1.68,4.56c-0.09,0.25-0.07,0.53,0.06,0.77l0,0
					c0.11,0.23,0.42,0.29,0.59,0.11l4.84-5.43c0.18-0.2,0.15-0.51-0.07-0.69l-1.07-0.89c-0.02-0.01-0.04-0.03-0.06-0.04
					L598.49,227.22z"/>
				<polygon class="st92" points="570.44,210.77 580.18,218.94 598.81,227.11 595.95,230.06 578.7,224.74 569.69,219.34 				"/>
				<path class="st27" d="M582.8,244.14c-0.12-0.11-0.31-0.07-0.36,0.07c-0.12,0.28-0.46,0.18-1.04,0.41
					c-0.6,0.24-0.91,0.54-1.12,0.36c-0.11-0.09-0.26-0.09-0.35,0.02l-2.61,3.38c-0.16,0.21-0.22,0.47-0.18,0.74l0,0
					c0.04,0.25,0.32,0.4,0.54,0.28l5.95-3.25c0.23-0.13,0.3-0.43,0.14-0.67l-0.77-1.16c-0.01-0.02-0.03-0.04-0.05-0.05L582.8,244.14
					z"/>
				<path class="st93" d="M563.67,216.76l5.97,13.79l10.02,15.16l3.43-1.62l-8.56-16.1c0,0-0.17-15.66-4.29-18.86L563.67,216.76z"/>
				<path class="st24" d="M552.56,200.51l0.13-0.27c0.44-0.89,0.08-1.97-0.82-2.42l-5.93-2.94l-1.59,3.22l6.22,3.08
					C551.3,201.55,552.19,201.25,552.56,200.51z"/>
				<path class="st30" d="M548.98,198.82c0,0,1.82,0.49,1.27,2.21l-1.08-0.53L548.98,198.82z"/>
				<path class="st24" d="M543.16,200.5c1.93,0.96,4.27,0.17,5.23-1.76c0.96-1.93,0.17-4.27-1.76-5.23
					c-1.93-0.96-4.27-0.17-5.23,1.76C540.44,197.21,541.23,199.55,543.16,200.5z"/>
				<path class="st24" d="M549.25,200.68L549.25,200.68c0.45-0.92,0.08-2.03-0.84-2.48l-3.35-1.66l-1.95,3.94l2.73,1.35
					C547.1,202.45,548.62,201.94,549.25,200.68z"/>
				<path class="st24" d="M543.99,200.79l0.75,1.32c0.13,0.2,0.42,0.17,0.53-0.05l0.61-0.8L543.99,200.79z"/>
				<g>
					<defs>
						<path id="SVGID_82_" d="M543.16,200.5c1.93,0.96,4.27,0.17,5.23-1.76c0.96-1.93,0.17-4.27-1.76-5.23
							c-1.93-0.96-4.27-0.17-5.23,1.76C540.44,197.21,541.23,199.55,543.16,200.5z"/>
					</defs>
					<clipPath id="SVGID_33_">
						<use xlink:href="#SVGID_82_"  style="overflow:visible;"/>
					</clipPath>
				</g>
				<path class="st94" d="M550.52,196.24l-0.73,6.14l1.88,0.71c0,0,9.21,9.86,11.74,16.67l10.19-9.29
					C573.6,210.48,561.98,196.91,550.52,196.24z"/>
				<path class="st28" d="M554.1,199.52c0,0-2.09,1.09-0.89,4.53c1.21,3.44,4.18,7.31,5.1,17.85l3.29-1.96c0,0,2.48-8.32-0.63-14.71
					C557.86,198.83,555.05,198.44,554.1,199.52z"/>
				<path class="st28" d="M546.14,198.29c0,0-2.11,0.13-2.08-0.73c0.04-0.86,0.65-3.48,2.56-4.05c0,0,1.48,0.08,2.73,3.07
					l-1.78,1.23L546.14,198.29z"/>
				<path class="st24" d="M546.14,198.29c0.53,0.26,1.17,0.05,1.44-0.48c0.26-0.53,0.05-1.17-0.48-1.44s-1.17-0.05-1.44,0.48
					C545.4,197.39,545.61,198.03,546.14,198.29z"/>
			</g>
			<line class="st95" x1="551.57" y1="201.95" x2="552.36" y2="198.19"/>
		</g>
	</g>
</g>
</svg>
