<?xml version="1.0" encoding="utf-8"?>
<!-- Generator: Adobe Illustrator 25.0.0, SVG Export Plug-In . SVG Version: 6.00 Build 0)  -->
<svg version="1.1" id="圖層_1" xmlns="http://www.w3.org/2000/svg" xmlns:xlink="http://www.w3.org/1999/xlink" x="0px" y="0px"
	 viewBox="0 0 186.39 184.82" style="enable-background:new 0 0 186.39 184.82;" xml:space="preserve">
<style type="text/css">
	.st0{opacity:0.3;}
	.st1{fill:none;}
	.st2{fill:#FFC6B9;}
	.st3{fill:#99FFCC;}
	.st4{clip-path:url(#SVGID_2_);}
	.st5{opacity:0.5;clip-path:url(#SVGID_4_);}
	.st6{fill:#FFC5B8;}
	.st7{clip-path:url(#SVGID_6_);}
	.st8{opacity:0.3;fill:#00B1D0;}
	.st9{clip-path:url(#SVGID_8_);}
	.st10{fill:#FFFFFF;}
	.st11{fill:none;stroke:#00B1D0;stroke-width:5.3642;stroke-miterlimit:10;}
	.st12{opacity:0.5;clip-path:url(#SVGID_10_);}
	.st13{fill:#00B0CF;}
	.st14{fill:#00B1D0;}
	.st15{fill:none;stroke:#FFFFFF;stroke-width:3;stroke-miterlimit:10;}
	.st16{fill:url(#SVGID_15_);}
	.st17{fill:none;stroke:#00B1D0;stroke-miterlimit:10;}
	.st18{fill:none;stroke:#FFC6B9;stroke-width:0.5966;stroke-miterlimit:10;}
	.st19{opacity:0.5;}
	.st20{clip-path:url(#SVGID_17_);}
	.st21{clip-path:url(#SVGID_19_);}
	.st22{clip-path:url(#SVGID_21_);}
	.st23{fill:#FFC8A5;}
	.st24{fill:#FFF5F1;}
	.st25{fill:#1E1E1C;}
	.st26{fill:#162026;}
	.st27{fill:#F9EBE5;}
	.st28{fill:#363332;}
	.st29{fill:#FFBD98;}
	.st30{clip-path:url(#SVGID_29_);fill:#121C21;}
	.st31{fill:#121C21;}
	.st32{fill:#001B2F;}
	.st33{fill:#054B8D;}
	.st34{fill:#656DB4;}
	.st35{clip-path:url(#SVGID_31_);fill:#121C21;}
	.st36{fill:#8A8DCF;}
	.st37{fill:#59619C;}
	.st38{fill:#3E4180;}
	.st39{fill:#985126;}
	.st40{fill:#1E2021;}
	.st41{fill:#FFD580;}
	.st42{fill:#8A461D;}
	.st43{clip-path:url(#SVGID_33_);fill:#121C21;}
	.st44{fill:#985024;}
	.st45{fill:#263F47;}
	.st46{fill:#9D9A9D;}
	.st47{fill:none;stroke:#FCB96C;stroke-width:0.4339;stroke-linecap:round;stroke-linejoin:round;stroke-miterlimit:10;}
	.st48{fill:#804B2A;}
	.st49{fill:#FFAB76;}
	.st50{fill:#723D23;}
	.st51{fill:#824B2D;}
	.st52{fill:#FF8282;}
	.st53{fill:#F76E6D;}
	.st54{fill:none;stroke:#FB8148;stroke-width:0.3303;stroke-linecap:round;stroke-miterlimit:10;}
	.st55{fill:#FFC9B2;}
	.st56{fill:#F59458;}
	.st57{fill:#FFE7CB;}
	.st58{fill:#242221;}
	.st59{fill:#FCB894;}
	.st60{fill:#353432;}
	.st61{fill:#FFB369;}
	.st62{fill:#E89983;}
	.st63{fill:#B47253;}
	.st64{fill:#FF9F6F;}
	.st65{fill:#00283F;}
	.st66{fill:#FB8148;}
	.st67{fill:none;stroke:#FB8148;stroke-width:0.286;stroke-linecap:round;stroke-miterlimit:10;}
	.st68{fill:none;stroke:#001B2F;stroke-width:0.286;stroke-linecap:round;stroke-linejoin:round;stroke-miterlimit:10;}
	.st69{clip-path:url(#SVGID_39_);fill:#121C21;}
	.st70{fill:#FF7983;}
	.st71{fill:#FFA770;}
	.st72{fill:#474447;}
	.st73{fill:#575456;}
	.st74{clip-path:url(#SVGID_41_);fill:#121C21;}
	.st75{fill:#FF8A54;}
	.st76{fill:none;stroke:#474447;stroke-width:0.3794;stroke-linecap:round;stroke-linejoin:round;stroke-miterlimit:10;}
	.st77{fill:#F56E6C;}
	.st78{clip-path:url(#SVGID_43_);}
	.st79{fill:none;stroke:#FF8986;stroke-width:0.2772;stroke-miterlimit:10;}
	.st80{fill:#007079;}
	.st81{fill:#A05B30;}
	.st82{fill:#AF6437;}
	.st83{fill:none;stroke:#F56E6C;stroke-width:0.7393;stroke-linecap:round;stroke-linejoin:round;stroke-miterlimit:10;}
	.st84{fill:#FF5A6A;}
	.st85{fill:#FF6C77;}
	.st86{fill:#000209;}
	.st87{fill:none;stroke:#FF4A62;stroke-width:0.7308;stroke-linecap:round;stroke-linejoin:round;stroke-miterlimit:10;}
	.st88{fill:#000D26;}
	.st89{fill:#FF4A62;}
	.st90{fill:none;stroke:#FF5A6A;stroke-width:0.2741;stroke-linecap:round;stroke-linejoin:round;stroke-miterlimit:10;}
	.st91{fill:#986E61;}
	.st92{fill:#A67E6F;}
	.st93{fill:#DEC4BF;}
	.st94{fill:none;stroke:#C7A6A0;stroke-width:0.2741;stroke-linecap:round;stroke-linejoin:round;stroke-miterlimit:10;}
	.st95{clip-path:url(#SVGID_51_);}
	.st96{clip-path:url(#SVGID_53_);}
	.st97{clip-path:url(#SVGID_55_);}
	.st98{clip-path:url(#SVGID_63_);fill:#121C21;}
	.st99{clip-path:url(#SVGID_65_);fill:#121C21;}
	.st100{clip-path:url(#SVGID_67_);fill:#121C21;}
	.st101{clip-path:url(#SVGID_73_);fill:#121C21;}
	.st102{clip-path:url(#SVGID_75_);fill:#121C21;}
	.st103{clip-path:url(#SVGID_77_);}
	.st104{fill:none;stroke:#FFFFFF;stroke-width:1.8021;stroke-linecap:round;stroke-linejoin:round;}
	
		.st105{fill:none;stroke:#FFFFFF;stroke-width:1.8021;stroke-linecap:round;stroke-linejoin:round;stroke-dasharray:0,19.9729,0,19.9729;}
	
		.st106{fill:none;stroke:#FFFFFF;stroke-width:1.8021;stroke-linecap:round;stroke-linejoin:round;stroke-dasharray:0,19.9729,0,19.9729,0,19.9729;}
	.st107{fill:#00B1D0;stroke:#FFFFFF;stroke-width:2.0891;stroke-miterlimit:10;}
	.st108{fill:none;stroke:#FFFFFF;stroke-width:3.6041;stroke-linecap:round;stroke-linejoin:round;}
	
		.st109{fill:none;stroke:#FFFFFF;stroke-width:3.6041;stroke-linecap:round;stroke-linejoin:round;stroke-dasharray:0,19.9729,0,19.9729;}
	
		.st110{fill:none;stroke:#FFFFFF;stroke-width:3.6041;stroke-linecap:round;stroke-linejoin:round;stroke-dasharray:0,19.9729,0,19.9729,0,19.9729;}
	.st111{fill:none;stroke:#00B1D0;stroke-width:4;stroke-miterlimit:10;}
	.st112{fill:none;stroke:#00B1D0;stroke-width:3.0676;stroke-miterlimit:10;}
	.st113{fill:none;stroke:#FFFFFF;stroke-width:0.4186;stroke-linecap:round;stroke-linejoin:round;}
	
		.st114{fill:none;stroke:#FFFFFF;stroke-width:0.4186;stroke-linecap:round;stroke-linejoin:round;stroke-dasharray:0,4.6396,0,4.6396;}
	
		.st115{fill:none;stroke:#FFFFFF;stroke-width:0.4186;stroke-linecap:round;stroke-linejoin:round;stroke-dasharray:0,4.6396,0,4.6396,0,4.6396;}
	.st116{fill:#00B1D0;stroke:#FFFFFF;stroke-width:0.4853;stroke-miterlimit:10;}
	.st117{fill:none;stroke:#FFFFFF;stroke-width:0.8372;stroke-linecap:round;stroke-linejoin:round;}
	
		.st118{fill:none;stroke:#FFFFFF;stroke-width:0.8372;stroke-linecap:round;stroke-linejoin:round;stroke-dasharray:0,4.6396,0,4.6396;}
	
		.st119{fill:none;stroke:#FFFFFF;stroke-width:0.8372;stroke-linecap:round;stroke-linejoin:round;stroke-dasharray:0,4.6396,0,4.6396,0,4.6396;}
	.st120{fill:none;stroke:#FFFFFF;stroke-width:0.4909;stroke-linecap:round;stroke-linejoin:round;}
	
		.st121{fill:none;stroke:#FFFFFF;stroke-width:0.4909;stroke-linecap:round;stroke-linejoin:round;stroke-dasharray:0,5.4413,0,5.4413;}
	
		.st122{fill:none;stroke:#FFFFFF;stroke-width:0.4909;stroke-linecap:round;stroke-linejoin:round;stroke-dasharray:0,5.4413,0,5.4413,0,5.4413;}
	.st123{fill:#00B1D0;stroke:#FFFFFF;stroke-width:0.5691;stroke-miterlimit:10;}
	.st124{fill:none;stroke:#FFFFFF;stroke-width:0.9819;stroke-linecap:round;stroke-linejoin:round;}
	
		.st125{fill:none;stroke:#FFFFFF;stroke-width:0.9819;stroke-linecap:round;stroke-linejoin:round;stroke-dasharray:0,5.4413,0,5.4413;}
	
		.st126{fill:none;stroke:#FFFFFF;stroke-width:0.9819;stroke-linecap:round;stroke-linejoin:round;stroke-dasharray:0,5.4413,0,5.4413,0,5.4413;}
	.st127{fill:#FFFFFF;stroke:#00B1D0;stroke-width:0.8292;stroke-miterlimit:10;}
	.st128{fill:none;stroke:#00B1D0;stroke-width:1.3186;stroke-miterlimit:10;}
</style>
<g>
	<g>
		<path class="st13" d="M39.21,183.11c2.37-2.32,2.41-6.12,0.09-8.49c-17.87-18.27-27.57-42.4-27.29-67.96
			C12.29,81.1,22.51,57.18,40.78,39.3s42.4-27.57,67.96-27.29c25.56,0.28,49.48,10.49,67.35,28.76c2.32,2.37,6.12,2.41,8.49,0.09
			c2.37-2.32,2.41-6.12,0.09-8.49c-20.12-20.56-47.04-32.06-75.8-32.37C80.1-0.31,52.94,10.6,32.38,30.72S0.32,77.76,0.01,106.52
			c-0.31,28.76,10.59,55.93,30.71,76.49C33.04,185.38,36.84,185.43,39.21,183.11z"/>
		<path class="st13" d="M57.51,174.16c1.92-1.88,1.95-4.96,0.07-6.88c-14.48-14.79-22.32-34.34-22.1-55.04
			c0.23-20.7,8.5-40.07,23.29-54.54s34.34-22.32,55.04-22.1c20.7,0.23,40.07,8.5,54.54,23.29c1.88,1.92,4.96,1.95,6.88,0.07
			c1.92-1.88,1.95-4.96,0.07-6.88c-16.29-16.65-38.09-25.96-61.39-26.22c-23.3-0.25-45.3,8.58-61.95,24.87s-25.96,38.1-26.22,61.39
			c-0.25,23.3,8.58,45.3,24.87,61.95C52.51,176.01,55.59,176.04,57.51,174.16z"/>
		<path class="st13" d="M75.21,169.73c1.55-1.52,1.58-4.01,0.06-5.56c-11.71-11.96-18.05-27.77-17.87-44.51
			c0.18-16.74,6.87-32.4,18.84-44.11s27.77-18.05,44.51-17.87c16.74,0.18,32.4,6.87,44.11,18.84c1.52,1.55,4.01,1.58,5.56,0.06
			c1.55-1.52,1.58-4.01,0.06-5.56c-13.18-13.47-30.81-21-49.65-21.2c-18.84-0.21-36.63,6.94-50.1,20.11s-21,30.81-21.2,49.65
			c-0.21,18.84,6.94,36.63,20.11,50.1C71.17,171.22,73.66,171.24,75.21,169.73z"/>
	</g>
</g>
</svg>
